<?xml version="1.0" encoding="utf-8"?>
<!-- Generator: Adobe Illustrator 23.0.3, SVG Export Plug-In . SVG Version: 6.00 Build 0)  -->
<svg version="1.1" id="Camada_1" xmlns="http://www.w3.org/2000/svg" xmlns:xlink="http://www.w3.org/1999/xlink" x="0px" y="0px"
	 viewBox="0 0 61.7 61.7" style="enable-background:new 0 0 61.7 61.7;" xml:space="preserve">
<style type="text/css">
	.st0{fill:#7FD244;}
</style>
<g>
	<path class="st0" d="M17.6,42.9c0-0.7,0.5-1.2,1.2-1.2s1.2,0.5,1.2,1.2s-0.5,1.2-1.2,1.2S17.6,43.5,17.6,42.9L17.6,42.9z
		 M37.8,35.8h-1.2c-0.7,0-1.2-0.5-1.2-1.2s0.5-1.2,1.2-1.2h1.2c5.2,0,9.4-4.2,9.5-9.4c0-0.3-0.3-0.6-0.6-0.6c-0.2,0-0.3,0.1-0.4,0.2
		l-0.9,0.9c-2.3,2.3-6,2.3-8.3,0s-2.3-6,0-8.3l0.9-0.9c0.1-0.1,0.2-0.2,0.2-0.4c0-0.3-0.2-0.6-0.6-0.6c-5,0.1-9,4-9.3,8.9
		c0,0.2,0,0.4,0,0.6l0,0l0,0l0,0c0,1.8-0.7,3.4-1.8,4.6l-11,11c-1.9,1.9-1.9,4.9,0,6.7c1.9,1.9,4.9,1.9,6.7,0l3.9-3.9l0.1-0.1
		l0.1-0.1l0,0c0.3-0.3,0.7-0.4,0.9-0.4c0.7,0,1.2,0.5,1.2,1.2c0,0.2-0.1,0.6-0.4,0.9l0,0l-0.1,0.1c0,0,0,0-0.1,0.1l-3.9,3.9
		c-2.8,2.8-7.3,2.8-10.1,0s-2.8-7.3,0-10.1l10.9-10.9c0.8-0.8,1.3-1.9,1.3-3.1c0-6.6,5.3-11.9,11.9-11.9c1.6,0,2.9,1.3,2.9,2.9
		c0,0.8-0.3,1.5-0.8,2L39,17.8c-1.4,1.4-1.4,3.6,0,5s3.6,1.4,5,0l1.1-1.1c0.5-0.5,1.2-0.8,2-0.8c1.6,0,2.9,1.3,2.9,2.9v0.1
		C49.6,30.5,44.3,35.8,37.8,35.8L37.8,35.8z M30.6,38.1c0.7,0,1.2,0.5,1.2,1.2s-0.5,1.2-1.2,1.2s-1.2-0.5-1.2-1.2
		C29.4,38.7,30,38.1,30.6,38.1L30.6,38.1z"/>
</g>
</svg>
