<?xml version="1.0" encoding="utf-8"?>
<!-- Generator: Adobe Illustrator 23.0.3, SVG Export Plug-In . SVG Version: 6.00 Build 0)  -->
<svg version="1.1" id="Camada_1" xmlns="http://www.w3.org/2000/svg" xmlns:xlink="http://www.w3.org/1999/xlink" x="0px" y="0px"
	 viewBox="0 0 61.7 61.7" style="enable-background:new 0 0 61.7 61.7;" xml:space="preserve">
<style type="text/css">
	.st0{fill:#7FD244;}
</style>
<g>
	<path class="st0" d="M48.3,43C48.2,43,48.2,43,48.3,43c-0.1,0.1-0.1,0.1-0.1,0.2c-0.1,0.1-0.2,0.2-0.3,0.3c-1.1,1.1-2.9,1.1-4,0
		l-1-1l0,0c-0.3-0.3-0.8-0.5-1.3-0.5c-0.4,0-0.8,0.2-1.1,0.4c-2.6,2.2-6,3.6-9.7,3.6c-6.7,0-12.4-4.4-14.3-10.5
		c-0.1-0.1-0.1-0.3-0.1-0.5c0-0.6,0.5-1.2,1.2-1.2c0.5,0,0.9,0.3,1.1,0.8l0,0c1.6,5.2,6.4,9,12.2,9c3.1,0,6-1.1,8.2-3l0,0
		c0.3-0.2,0.6-0.4,0.9-0.6l0,0c1.5-0.7,3.3-0.5,4.6,0.8l1,1c0.2,0.2,0.6,0.2,0.8,0l0,0c0.4-0.4,0.7-1,0.7-1.6v-4.6
		c0-1.3-1-2.3-2.3-2.3h-4.6c-0.6,0-1.2,0.3-1.6,0.7l0,0l0,0c-0.2,0.2-0.2,0.6,0,0.8l0.9,0.9l0,0c0.2,0.2,0.3,0.5,0.3,0.8
		c0,0.6-0.5,1.2-1.2,1.2c-0.3,0-0.6-0.1-0.8-0.3l0,0l-1-1c-1.1-1.1-1.1-2.9,0-4c0.1-0.1,0.2-0.1,0.3-0.2c0.8-0.7,1.9-1.1,3-1.1h3.5
		h1.2c2.6,0,4.6,2.1,4.6,4.6v4.6C49.2,41.2,48.9,42.2,48.3,43L48.3,43z M43.4,26.9c-0.6,0-1.2-0.5-1.2-1.2c0-0.6,0.5-1.2,1.2-1.2
		c0.6,0,1.2,0.5,1.2,1.2S44.1,26.9,43.4,26.9L43.4,26.9z M40.5,22.3c-0.3,0-0.6-0.1-0.8-0.3c-2.3-2.3-5.5-3.7-9-3.7
		c-3.1,0-6,1.1-8.2,3l0,0c-0.3,0.2-0.6,0.4-0.9,0.6l0,0c-1.5,0.7-3.3,0.5-4.6-0.8l-1-1c-0.2-0.2-0.6-0.2-0.8,0l0,0
		c-0.4,0.4-0.7,1-0.7,1.6v4.6c0,1.3,1,2.3,2.3,2.3h4.6c0.6,0,1.2-0.3,1.6-0.7l0,0l0,0c0.2-0.2,0.2-0.6,0-0.8l-0.9-0.9l0,0
		c-0.1-0.2-0.3-0.5-0.3-0.8c0-0.6,0.5-1.2,1.2-1.2c0.3,0,0.6,0.1,0.8,0.3l0,0l1,1c1.1,1.1,1.1,2.9,0,4c-0.1,0.1-0.2,0.2-0.3,0.2
		s-0.1,0.1-0.2,0.1l0,0c-0.8,0.6-1.8,1-2.8,1H18h-1.2c-2.6,0-4.6-2.1-4.6-4.6v-4.6c0-1.1,0.4-2,1-2.8c0,0,0,0,0-0.1l0.1-0.1
		c0.1-0.1,0.2-0.2,0.2-0.3c1.1-1.1,2.9-1.1,4,0l1,1l0,0c0.3,0.3,0.8,0.5,1.3,0.5c0.4,0,0.8-0.2,1.1-0.4c2.6-2.2,6-3.6,9.7-3.6
		c4.2,0,7.9,1.7,10.6,4.4l0,0c0.2,0.2,0.3,0.5,0.3,0.8C41.7,21.8,41.2,22.3,40.5,22.3L40.5,22.3z"/>
</g>
</svg>
