<?xml version="1.0" encoding="utf-8"?>
<!-- Generator: Adobe Illustrator 23.0.3, SVG Export Plug-In . SVG Version: 6.00 Build 0)  -->
<svg version="1.1" id="Camada_1" xmlns="http://www.w3.org/2000/svg" xmlns:xlink="http://www.w3.org/1999/xlink" x="0px" y="0px"
	 viewBox="0 0 61.7 61.7" style="enable-background:new 0 0 61.7 61.7;" xml:space="preserve">
<style type="text/css">
	.st0{fill:#7FD244;}
</style>
<g>
	<g>
		<path class="st0" d="M49.5,37c-0.3-7.1-4.8-13.5-11.3-16.3l-0.1-0.1l0.2-1.1c0.1-0.5-0.2-1-0.7-1.2l0,0c-4.4-1.5-9.3-1.5-13.7,0
			l0,0c-0.5,0.2-0.8,0.7-0.7,1.2l0.2,1.1h-0.1c-6.5,2.9-10.8,9.2-11.2,16.3l0,0c-1,0-1.8,0.8-1.8,1.8v4.1c0,1,0.8,1.8,1.8,1.8h37.7
			c0.8,0,1.5-0.7,1.5-1.5v-4.6c0-0.8-0.7-1.5-1.5-1.5C49.9,37,49.5,37,49.5,37z M48.3,42.5H13.1c-0.4,0-0.8-0.3-0.8-0.8v-1.8
			c0-0.4,0.3-0.8,0.8-0.8h11c0.7,0,1.3-0.4,1.6-1l0,0c0.3-0.6,0.3-1.3-0.1-1.9c-0.7-1.1-1.1-2.5-1-3.9c0.3-2.9,2.5-5.2,5.4-5.5
			c3.7-0.4,6.8,2.5,6.8,6.1c0,0.6-0.1,1.2-0.3,1.8c-0.2,0.5,0.1,1.1,0.6,1.3l0,0c0.6,0.2,1.2-0.1,1.4-0.7c0.3-1,0.4-2.1,0.3-3.2
			c-0.4-4.1-3.7-7.3-7.8-7.5c-4.8-0.3-8.7,3.5-8.7,8.2c0,1.5,0.4,2.9,1.1,4.1H14c0.3-6,4-11.5,9.4-14.1l2-0.9l-0.3-1.8
			c3.4-1,7.2-1.1,10.6,0v1.8l2.1,0.9c5.5,2.6,9.2,8.1,9.6,14.2h-7.3c-0.6,0-1.1,0.5-1.1,1.1l0,0c0,0.6,0.5,1.1,1.1,1.1h8.3
			c0.5,0,0.8,0.4,0.8,0.8v1.7C49.2,42.1,48.8,42.5,48.3,42.5z"/>
	</g>
	<path class="st0" d="M37,36.9c0.5,0,1,0.4,1,1c0,0.5-0.4,1-1,1c-0.5,0-1-0.4-1-1C36,37.4,36.3,36.9,37,36.9L37,36.9z"/>
</g>
</svg>
