<?xml version="1.0" encoding="utf-8"?>
<!-- Generator: Adobe Illustrator 23.0.3, SVG Export Plug-In . SVG Version: 6.00 Build 0)  -->
<svg version="1.1" id="Camada_1" xmlns="http://www.w3.org/2000/svg" xmlns:xlink="http://www.w3.org/1999/xlink" x="0px" y="0px"
	 viewBox="0 0 61.7 61.7" style="enable-background:new 0 0 61.7 61.7;" xml:space="preserve">
<style type="text/css">
	.st0{fill:#7FD244;}
</style>
<g>
	<path class="st0" d="M46.6,33.3c-0.7,0-1.2,0.5-1.2,1.2v0.6c0,1.7-1.4,3-3,3c-0.7,0-1.3-0.2-1.8-0.6l0,0l-2.9-2.2
		c0,0-0.1,0-0.1-0.1c-1.2-0.9-1.9-2.3-1.9-3.9V29c0-1.7-1.4-3-3-3h-16c-1.7,0-3,1.4-3,3v8.5c0,1.3,0.9,2.5,2.1,2.9
		c0,0.1,0.2,0.2,0.4,0.2c0.9,0,2.4,1.4,2.4,3v1.2c0,0.3,0.3,0.6,0.6,0.6c0.1,0,0.2,0,0.3-0.1l0,0l5.1-3.8c0.8-0.6,1.7-0.9,2.8-0.9
		H32c0.7,0,1.2,0.5,1.2,1.2S32.7,43,32,43h-4.3c-0.7,0-1.3,0.2-1.9,0.6l-4.9,3.7l0,0c-0.5,0.4-1.1,0.6-1.8,0.6c-1.7,0-3-1.4-3-3
		v-0.6c0-0.7-0.5-1.2-1.2-1.2c-0.1,0-0.2-0.1-0.1-0.2c-2-0.6-3.5-2.5-3.5-4.7v-9.7c0-2.7,2.2-4.9,4.9-4.9h17.1
		c2.7,0,4.9,2.2,4.9,4.9v3c0,0.8,0.4,1.5,1,2l2.9,2.2l0,0c0.1,0.1,0.2,0.1,0.3,0.1c0.3,0,0.6-0.3,0.6-0.6V34c0-1.7,1.5-3,2.4-3
		c1.2,0,2.4-1.4,2.4-3v-8.5c0-1.7-1.4-3-3-3H28.9c-1.7,0-3,1.4-3,3V20c0,0.7-0.5,1.2-1.2,1.2s-1.2-0.5-1.2-1.2v-1.3
		c0-2.7,2.2-4.9,4.9-4.9h17.1c2.7,0,4.9,2.2,4.9,4.9v9.8C50.3,31.2,48.3,33.3,46.6,33.3L46.6,33.3z M36.9,38.2
		c0.7,0,1.2,0.5,1.2,1.2s-0.5,1.2-1.2,1.2s-1.2-0.5-1.2-1.2C35.6,38.8,36.2,38.2,36.9,38.2L36.9,38.2z"/>
</g>
</svg>
