<?xml version="1.0" encoding="utf-8"?>
<!-- Generator: Adobe Illustrator 23.0.3, SVG Export Plug-In . SVG Version: 6.00 Build 0)  -->
<svg version="1.1" id="Camada_1" xmlns="http://www.w3.org/2000/svg" xmlns:xlink="http://www.w3.org/1999/xlink" x="0px" y="0px"
	 viewBox="0 0 61.7 61.7" style="enable-background:new 0 0 61.7 61.7;" xml:space="preserve">
<style type="text/css">
	.st0{fill:#7FD244;}
</style>
<g>
	<path class="st0" d="M17.4,39.4c0.7,0,1.2,0.5,1.2,1.2s-0.5,1.2-1.2,1.2s-1.2-0.5-1.2-1.2C16.1,40,16.6,39.4,17.4,39.4L17.4,39.4z
		 M45.3,46.7H21h-4.9c-2.7,0-4.9-2.2-4.9-4.9v-17c0-2.6,2-4.7,4.6-4.9l1.8-3.1c0.6-1,2.1-1.8,3.4-1.8h7.3c1.3,0,2.9,0.7,3.5,1.8
		l1.8,3.1h10.5c0.7,0,1.2,0.5,1.2,1.2s-0.5,1.2-1.2,1.2h-11l0,0c-0.2,0-0.4-0.1-0.6-0.1c-0.5-0.2-1-0.6-1.3-1L30,18.7
		c-0.4-0.7-1.3-1.2-2.2-1.2h-6.1c-0.8,0-1.8,0.5-2.2,1.2L18,21.2c-0.3,0.5-0.6,0.8-1.1,1c-0.3,0.1-0.6,0.1-0.8,0.1l0,0
		c-1.1,0-2.4,1.4-2.4,3v15.8c0,1.6,1.2,2.9,2.8,3c0.1,0,0.2,0,0.2,0l0,0h4.8h1.8h21.4c1.7,0,3-1.4,3-3v-11c0-1.7-1.4-3-3-3H22.9
		h-1.2h-1.2c-1,0-1.8,0.8-1.8,1.8v1.2v1.2v4.3c0,0.7-0.5,1.2-1.2,1.2s-1.2-0.5-1.2-1.2v-5.9c0-0.1,0-0.3,0-0.4s0-0.1,0-0.2v-0.6
		c0-2,1.6-3.7,3.7-3.7h0.6c0.1,0,0.1,0,0.2,0s0.3,0,0.4,0h24.4c2.7,0,4.9,2.2,4.9,4.9v12.2C50.2,44.6,48,46.7,45.3,46.7L45.3,46.7z"
		/>
</g>
</svg>
