<?xml version="1.0" encoding="utf-8"?>
<!-- Generator: Adobe Illustrator 23.0.3, SVG Export Plug-In . SVG Version: 6.00 Build 0)  -->
<svg version="1.1" id="Camada_1" xmlns="http://www.w3.org/2000/svg" xmlns:xlink="http://www.w3.org/1999/xlink" x="0px" y="0px"
	 viewBox="0 0 61.7 61.7" style="enable-background:new 0 0 61.7 61.7;" xml:space="preserve">
<style type="text/css">
	.st0{fill:#7FD244;}
</style>
<g>
	<path class="st0" d="M48.5,37.7l-4.9,4.9c-0.8,0.8-1.9,1.3-3,1.3c-0.1,0-0.2,0-0.3,0c-1.3,0-2.4-1.1-2.4-2.4v-1.2
		c0-0.7-0.5-1.2-1.2-1.2h-9.4c-0.7,0-1.2-0.5-1.2-1.2s0.5-1.2,1.2-1.2h10c1.6,0,3,1.3,3,3v0.6c0,0.5,0.4,0.9,0.9,0.9
		c0.2,0,0.4-0.1,0.6-0.2l0.1-0.1l4.8-4.8c0.9-0.9,0.9-2.3,0-3.2l-4.8-4.8c-0.1-0.1-0.2-0.1-0.2-0.2c-0.1-0.1-0.3-0.2-0.5-0.2
		c-0.5,0-0.9,0.4-0.9,0.9v0.6c0,1.6-1.3,3-3,3h-10h-0.6h-1.8c-0.7,0-1.2,0.5-1.2,1.2v1.2c0,1.3-1.1,2.4-2.4,2.4c-0.1,0-0.2,0-0.3,0
		c-1.1-0.1-2.2-0.5-3-1.3l-4.8-5.1c-0.9-0.9-1.3-2.1-1.3-3.3s0.4-2.4,1.3-3.3l4.9-4.9c0.8-0.8,1.9-1.3,3-1.3c0.1,0,0.2,0,0.3,0
		c1.3,0,2.4,1.1,2.4,2.4v1.2c0,0.7,0.5,1.2,1.2,1.2h3.6c0.7,0,1.2,0.5,1.2,1.2S29.2,25,28.5,25h-4.3c-1.6,0-3-1.3-3-3v-0.6
		c0-0.5-0.4-0.9-0.9-0.9c-0.2,0-0.4,0.1-0.6,0.2l-0.1,0.1l-4.8,4.8c-0.9,0.9-0.9,2.3,0,3.2l4.8,4.8c0.1,0.1,0.2,0.1,0.2,0.2
		c0.1,0.1,0.3,0.2,0.5,0.2c0.5,0,0.9-0.4,0.9-0.9v-0.6c0-1.6,1.3-3,3-3h3h3.6h5.9c0.7,0,1.2-0.5,1.2-1.2v-1.2c0-1.3,1.1-2.4,2.4-2.4
		c0.1,0,0.2,0,0.3,0c1.1,0.1,2.2,0.5,3,1.3l4.9,4.9c0.9,0.9,1.3,2.1,1.3,3.3C49.8,35.6,49.3,36.8,48.5,37.7z M33.2,24.9
		c-0.7,0-1.2-0.5-1.2-1.2s0.5-1.2,1.2-1.2s1.2,0.5,1.2,1.2S33.8,24.9,33.2,24.9z"/>
</g>
</svg>
