<?xml version="1.0" encoding="utf-8"?>
<!-- Generator: Adobe Illustrator 23.0.3, SVG Export Plug-In . SVG Version: 6.00 Build 0)  -->
<svg version="1.1" id="Camada_1" xmlns="http://www.w3.org/2000/svg" xmlns:xlink="http://www.w3.org/1999/xlink" x="0px" y="0px"
	 viewBox="0 0 61.7 61.7" style="enable-background:new 0 0 61.7 61.7;" xml:space="preserve">
<style type="text/css">
	.st0{fill:#7FD244;}
</style>
<path class="st0" d="M48.5,26L33.3,41.2c-0.1,0.1-0.1,0.2-0.2,0.3L31,43.6c-0.9,0.9-2.2,1.4-3.4,1.4c-1.2,0-2.4-0.5-3.4-1.4
	l-2.7-2.7c-0.1-0.1-0.1-0.2-0.2-0.3l-8.1-8.1c-1.8-1.8-1.8-4.8,0-6.7l2.1-2.1c1.8-1.8,4.8-1.8,6.7,0l3,3l0,0c0.9,0.9,3,0.9,3.9,0
	l0,0l5.9-5.9l0,0c0.5-0.5,1.2-0.5,1.7,0s0.5,1.2,0,1.7l0,0l-6.3,6.3c0,0,0,0-0.1,0c-1.6,1.6-4.8,1.6-6.5,0c0,0,0,0-0.1,0l-2.9-2.9
	c-1.2-1.2-3-1.2-4.2,0l-1.2,1.2c-1.2,1.2-1.2,3,0,4.2l8.1,8.1c0.1,0.1,0.1,0.2,0.2,0.3l1.8,1.8c0.6,0.6,1.4,0.9,2.1,0.9
	c0.8,0,1.5-0.3,2.1-0.9l1.2-1.2c0.1-0.1,0.1-0.2,0.2-0.3l15.2-15.2c1.2-1.2,1.2-3,0-4.2l-1.4-1.4l0,0c-0.1-0.1-0.3-0.3-0.4-0.4
	c-0.5-0.5-0.5-1.2,0-1.7s1.2-0.5,1.7,0c0.2,0.2,0.3,0.3,0.4,0.4l0,0l1.8,1.8C50.3,21.2,50.3,24.2,48.5,26L48.5,26z M39.2,20
	c-0.7,0-1.2-0.5-1.2-1.2s0.5-1.2,1.2-1.2s1.2,0.5,1.2,1.2S39.9,20,39.2,20L39.2,20z"/>
</svg>
