<?xml version="1.0" encoding="utf-8"?>
<!-- Generator: Adobe Illustrator 23.0.3, SVG Export Plug-In . SVG Version: 6.00 Build 0)  -->
<svg version="1.1" id="Camada_1" xmlns="http://www.w3.org/2000/svg" xmlns:xlink="http://www.w3.org/1999/xlink" x="0px" y="0px"
	 viewBox="0 0 61.7 61.7" style="enable-background:new 0 0 61.7 61.7;" xml:space="preserve">
<style type="text/css">
	.st0{fill:#7FD244;}
</style>
<g>
	<path class="st0" d="M37.9,36.6c0,0.6-0.5,1.2-1.2,1.2c-0.6,0-1.2-0.5-1.2-1.2c0-0.6,0.5-1.2,1.2-1.2C37.2,35.5,37.9,36,37.9,36.6
		L37.9,36.6z M41.2,41.2H40c-0.3,0-0.6,0.1-0.8,0.3c0,0-0.2,0.2-0.4,0.4L34,47c-0.8,0.8-1.8,1.2-2.8,1.3h-0.6c-1-0.1-2-0.5-2.7-1.3
		l-2.5-2.5l0,0C25.2,44.2,25,44,25,43.5c0-0.7,0.6-1.3,1.3-1.3c0.4,0,0.7,0.1,0.9,0.4l0,0l2.9,2.9c0.5,0.5,1.2,0.5,1.7,0
		c0,0,5.3-5.3,5.2-5.2c0.8-0.8,2-1.4,3.3-1.4h1c3.2,0,5.8-2.6,5.8-5.8c0-0.3,0-0.5-0.1-0.8c0-0.1,0-0.1,0-0.2c0-0.3-0.1-0.5-0.2-0.8
		l0,0c-0.1-0.3-0.2-0.5-0.3-0.7v-0.1c-0.6-1.2-1.7-2.2-2.9-2.8c-0.6-0.3-1.1-0.9-1.1-1.6c0-1.8-1.4-3.3-3.2-3.4c-0.1,0-0.1,0-0.2,0
		c-0.8,0-1.6-0.7-2-1.5l0,0c-1.4-3.2-4.7-5.5-8.4-5.5c-5.1,0-9.3,4.1-9.3,9.2c0,1.3-0.7,2.5-1.7,3.1c0,0,0,0-0.1,0.1
		c-0.6,0.4-1.2,0.9-1.7,1.5c0,0,0,0,0,0.1c-0.1,0.2-0.2,0.4-0.4,0.5l0,0c-0.1,0.2-0.2,0.4-0.3,0.6l0,0c-0.1,0.2-0.1,0.4-0.2,0.6
		c0,0.1,0,0.1,0,0.2c0,0.2-0.1,0.3-0.1,0.5c0,0.1,0,0.1,0,0.2c0,0.2,0,0.5,0,0.7c0,3.2,2.6,5.8,5.8,5.8h0.6c0.3,0,0.6-0.3,0.7-0.6
		l0,0v-0.1c0.3-1.6,1.7-2.7,3.4-2.7c0.6,0,1.2-0.5,1.2-1.2v-1.7c0-1.6,1.3-2.9,2.9-2.9H33c1.6,0,2.9,1.3,2.9,2.9v0.6
		c0,0.6-0.5,1.2-1.2,1.2c-0.6,0-1.2-0.5-1.2-1.2S32.7,32,32.1,32h-2.3c-0.6,0-1.2,0.5-1.2,1.2V35c0,1.6-1.3,2.9-2.9,2.9h-0.6
		c-0.3,0-0.6,0.1-0.8,0.4c-0.1,0.1-0.2,0.2-0.2,0.3l0,0C24,38.6,24,38.8,24,39l0,0c0,1.3-1,2.3-2.3,2.3h-1.2c-4.5,0-8.1-3.6-8.1-8.1
		c0-3,1.6-5.6,4-7l0,0c0.3-0.2,0.6-0.7,0.6-1.1c0-0.1,0-0.2,0-0.3c0.1-6.3,5.3-11.3,11.6-11.3c4.7,0,8.8,2.9,10.6,6.9
		c3,0.1,5.4,2.4,5.6,5.4c2.7,1.3,4.6,4.1,4.6,7.3C49.4,37.6,45.8,41.2,41.2,41.2L41.2,41.2z"/>
</g>
</svg>
