<?xml version="1.0" encoding="utf-8"?>
<!-- Generator: Adobe Illustrator 23.0.3, SVG Export Plug-In . SVG Version: 6.00 Build 0)  -->
<svg version="1.1" id="Camada_1" xmlns="http://www.w3.org/2000/svg" xmlns:xlink="http://www.w3.org/1999/xlink" x="0px" y="0px"
	 viewBox="0 0 61.7 61.7" style="enable-background:new 0 0 61.7 61.7;" xml:space="preserve">
<style type="text/css">
	.st0{fill:#7FD244;}
</style>
<g>
	<path class="st0" d="M25.8,27.7c-0.5-0.5-0.5-1.2,0-1.7s1.2-0.5,1.7,0s0.5,1.2,0,1.7C27,28.1,26.3,28.1,25.8,27.7L25.8,27.7z
		 M35.8,26c2.8,2.8,2.8,7.3,0,10.1c-2.8,2.8-7.3,2.8-10.1,0c-1.4-1.4-2.1-3.2-2.1-5l0,0c0-0.3,0.1-0.6,0.3-0.8
		c0.5-0.5,1.2-0.5,1.7,0c0.2,0.2,0.3,0.6,0.3,0.9c0,1.2,0.5,2.4,1.4,3.3c1.9,1.9,4.9,1.9,6.7,0c1.9-1.9,1.9-4.9,0-6.7
		c-0.9-0.9-2.1-1.4-3.3-1.4c-0.3,0-0.6-0.1-0.9-0.3c-0.5-0.5-0.5-1.2,0-1.7c0.2-0.2,0.5-0.3,0.8-0.3l0,0
		C32.7,23.9,34.5,24.6,35.8,26L35.8,26z M48.7,32.2c-0.5,0-0.9-0.3-1.1-0.7c-3.3-5.6-9.7-10-16.7-10S17.7,25.3,14.5,31
		c3.3,5.7,9.4,9.5,16.4,9.5c3.2,0,6.2-0.8,8.9-2.2l0,0c0.2-0.1,0.4-0.2,0.6-0.2c0.7,0,1.2,0.5,1.2,1.2c0,0.5-0.3,1-0.8,1.1
		c-3,1.6-6.3,2.4-9.9,2.4c-8.4,0-15.5-4.8-19-11.9c3.5-7,10.6-11.9,19-11.9c8.1,0,15.1,4.4,18.7,11c0.1,0.1,0.2,0.3,0.2,0.4
		c0.1,0.1,0.1,0.3,0.1,0.4C49.8,31.7,49.2,32.2,48.7,32.2L48.7,32.2z M43.8,35.8c0.7,0,1.2,0.5,1.2,1.2s-0.5,1.2-1.2,1.2
		c-0.7,0-1.2-0.5-1.2-1.2S43.2,35.8,43.8,35.8L43.8,35.8z"/>
</g>
</svg>
