<?xml version="1.0" encoding="utf-8"?>
<!-- Generator: Adobe Illustrator 23.0.3, SVG Export Plug-In . SVG Version: 6.00 Build 0)  -->
<svg version="1.1" id="Camada_1" xmlns="http://www.w3.org/2000/svg" xmlns:xlink="http://www.w3.org/1999/xlink" x="0px" y="0px"
	 viewBox="0 0 61.7 61.7" style="enable-background:new 0 0 61.7 61.7;" xml:space="preserve">
<style type="text/css">
	.st0{fill:#7FD244;}
</style>
<g>
	<path class="st0" d="M42.7,24.9c0,0.7-0.5,1.2-1.2,1.2s-1.2-0.5-1.2-1.2s0.5-1.2,1.2-1.2C42.1,23.6,42.7,24.2,42.7,24.9L42.7,24.9z
		 M42.7,45.1h-19h-1.2c-2,0-3.6-1.6-3.6-3.6v-1.2V16.5c0-2.6,2.1-4.7,4.8-4.7h9.5c1.3,0,2.4,1.1,2.4,2.4v7.1c0,1.3,1.1,2.4,2.4,2.4
		c0.7,0,1.2,0.5,1.2,1.2s-0.5,1.2-1.2,1.2c-2.6,0-4.7-2.1-4.7-4.8v-4.7v-2.4h-2.5h-7.1c-1.3,0-2.4,1.1-2.4,2.4v20.2v0.2V41
		c0,1,0.8,1.8,1.8,1.8H27h0.2h15.4c1.3,0,2.4-1.1,2.4-2.4V29.6V26v-1.9l-7.2-7.3c-0.5-0.5-0.5-1.2,0-1.7s1.2-0.5,1.7,0l7.6,7.6l0,0
		c0.2,0.2,0.4,0.5,0.4,0.8v2.4v3.7v10.7C47.4,43,45.3,45.1,42.7,45.1L42.7,45.1z M36.7,47.5c0.4,0,1.2,0,1.2,0
		c0.7,0,1.2,0.5,1.2,1.2s-0.5,1.2-1.2,1.2c-0.1,0-17.8,0-17.8,0c-3.3,0-5.9-2.7-5.9-5.9V26c0-0.7,0.5-1.2,1.2-1.2
		c0.7,0,1.2,0.5,1.2,1.2v17.8c0,2,1.6,3.6,3.6,3.6L36.7,47.5L36.7,47.5z M15.4,22.4c-0.7,0-1.2-0.5-1.2-1.2s0.5-1.2,1.2-1.2
		c0.7,0,1.2,0.5,1.2,1.2C16.5,21.9,16,22.4,15.4,22.4L15.4,22.4z"/>
</g>
</svg>
