<?xml version="1.0" encoding="utf-8"?>
<!-- Generator: Adobe Illustrator 23.0.3, SVG Export Plug-In . SVG Version: 6.00 Build 0)  -->
<svg version="1.1" id="Camada_1" xmlns="http://www.w3.org/2000/svg" xmlns:xlink="http://www.w3.org/1999/xlink" x="0px" y="0px"
	 viewBox="0 0 61.7 61.7" style="enable-background:new 0 0 61.7 61.7;" xml:space="preserve">
<style type="text/css">
	.st0{fill:#7FD244;}
</style>
<g>
	<path class="st0" d="M49.8,29.5l-3.3,11.9c-0.7,2.6-3.4,4.7-6,4.7H38H28c-0.7,0-1.2-0.5-1.2-1.2s0.5-1.2,1.2-1.2h12.6
		c1.6,0,3.3-1.3,3.8-3L47.2,30c0.4-1.6-0.5-3-2.2-3h-19c-1.6,0-3.3,1.3-3.8,3l-1.8,6.5l0,0l-1.2,4.4c-0.4,1.6-1.9,2.8-3.6,2.8
		c-2.1,0-3.8-1.7-3.8-3.8V24.9c0-2.5,2-4.6,4.5-4.7l1.7-3c0.6-1,2-1.7,3.4-1.7h7.1c1.3,0,2.8,0.7,3.4,1.7l1.7,3H44
		c0.7,0,1.2,0.5,1.2,1.2s-0.5,1.2-1.2,1.2H33.2c-0.7,0-1.5-0.5-1.9-1.1L30.1,19c-0.4-0.7-1.3-1.1-2.1-1.1h-6c-0.8,0-1.8,0.5-2.1,1.1
		l-1.3,2.5c-0.4,0.7-0.9,1.1-1.9,1.1c-1.1,0-2.4,1.3-2.4,3v14.3c0,0.8,0.7,1.5,1.5,1.5c0.7,0,1.3-0.5,1.4-1.1l2.9-10.5
		c0.7-2.6,3.4-4.7,6-4.7h20.2c2.2,0,3.6,1.5,3.6,3.5C49.9,28.6,49.9,29.1,49.8,29.5z M23.2,43.8c0.7,0,1.2,0.5,1.2,1.2
		s-0.5,1.2-1.2,1.2S22,45.7,22,45S22.6,43.8,23.2,43.8z"/>
</g>
</svg>
