<?xml version="1.0" encoding="utf-8"?>
<!-- Generator: Adobe Illustrator 23.0.3, SVG Export Plug-In . SVG Version: 6.00 Build 0)  -->
<svg version="1.1" id="Camada_1" xmlns="http://www.w3.org/2000/svg" xmlns:xlink="http://www.w3.org/1999/xlink" x="0px" y="0px"
	 viewBox="0 0 61.7 61.7" style="enable-background:new 0 0 61.7 61.7;" xml:space="preserve">
<style type="text/css">
	.st0{fill:#7FD244;}
</style>
<g>
	<g>
		<path class="st0" d="M55.8,36.8c-0.4-1.5-2-2.4-3.5-2l-14.5,3.9c0.7-0.5,1.1-1.3,1.1-2.2c0-1.5-1.2-2.8-2.8-2.8H22.7l-0.6-0.4
			c-0.8-0.6-1.8-0.8-2.7-0.8l0,0h-2.8c-2,0-3.5,1.6-3.6,3.5l0,0v8.7c0,1-0.8,1.8-1.8,1.8H9.4c-1,0-1.8-0.8-1.8-1.8v-8.9
			c0-1,0.8-1.8,1.8-1.8h1c0.5,0,0.8-0.4,0.8-0.8v-0.1c0-0.2-0.1-0.5-0.3-0.6c-0.2-0.2-0.4-0.3-0.6-0.3h-1c-2,0-3.6,1.6-3.6,3.6v8.9
			c0,2,1.6,3.6,3.6,3.6h1.9c2,0,3.6-1.6,3.6-3.6v-7.1l0,0v-1.5c0-1,0.8-1.8,1.8-1.8h3.1c0.6,0.1,1,0.3,1.5,0.6l0.7,0.6
			c0.1,0.1,0.3,0.1,0.5,0.1h13.9c0.6,0,1,0.5,1,1c0,0.6-0.5,1-1,1h-9.5c-0.5,0-0.8,0.4-0.8,0.8c0,0.5,0.4,0.8,0.8,0.8h9.5
			c-0.1,0.1-0.2,0.2-0.3,0.3c-0.1,0.2-0.1,0.5,0,0.7c0.1,0.2,0.3,0.4,0.5,0.5c0.2,0.1,0.5,0.1,0.7,0l15.7-4.3
			c0.5-0.1,0.9,0.1,1.1,0.5c0.3,0.5,0.2,1.2-0.4,1.5L33.8,49.1c-3.9,2-8.5,2.1-12.6,0.6l-1.4-0.6c-0.3-0.1-0.5-0.1-0.7,0.1
			c-0.2,0.2-0.4,0.4-0.4,0.7V50c0,0.4,0.2,0.7,0.5,0.7l1.3,0.5c2,0.7,4.1,1.1,6.2,1.1c2.7,0,5.4-0.7,7.7-1.8l19.9-10.6
			C55.6,39.4,56.2,38,55.8,36.8z"/>
		<path class="st0" d="M24.8,33c0.3,0,0.5-0.1,0.7-0.2l0,0c2.1-2.1,5.6-3.5,9.3-3.7c5.3-0.3,10.1,1.8,11.7,5
			c0.2,0.3,0.5,0.5,0.7,0.5l0,0c0.1,0,0.3,0,0.4-0.1c0.5-0.2,0.7-0.7,0.4-1.1c-1.6-3.2-5.5-5.4-10.3-5.9v-6.7h2.1l0,0l0,0h0.1l0,0
			c1.6,0,3.2-0.7,4.3-1.8c1.2-1.2,1.9-2.7,1.9-4.4c0-0.5-0.4-0.8-0.8-0.8h-3.1c-1.7,0-3.3,0.7-4.5,2v-0.4c0,0,0,0,0-0.1
			c-0.1-3.4-2.9-6-6.2-6h-3.1c-0.5,0-0.8,0.4-0.8,0.8c0,3.4,2.8,6.2,6.2,6.2h2.2v10.9c-0.5,0-0.9,0-1.3,0c-4.2,0.3-8,1.8-10.4,4.2
			c-0.3,0.4-0.3,0.8,0,1.1C24.3,32.9,24.5,33,24.8,33z M33.7,14.8c-2.1,0-4-1.6-4.4-3.6h2.1c2.1,0,4,1.6,4.4,3.6H33.7z M37.7,19
			c0.5-2.1,2.3-3.6,4.4-3.6h2.1c-0.4,2.1-2.3,3.6-4.4,3.6l0,0C39.9,19,37.7,19,37.7,19z"/>
	</g>
	<path class="st0" d="M16.8,47.1c0.5,0,0.9,0.4,0.9,0.9c0,0.5-0.4,0.8-0.9,0.8c-0.5,0-0.9-0.4-0.9-0.8
		C15.9,47.5,16.3,47.1,16.8,47.1L16.8,47.1z"/>
</g>
</svg>
