<?xml version="1.0" encoding="utf-8"?>
<!-- Generator: Adobe Illustrator 23.0.3, SVG Export Plug-In . SVG Version: 6.00 Build 0)  -->
<svg version="1.1" id="Camada_1" xmlns="http://www.w3.org/2000/svg" xmlns:xlink="http://www.w3.org/1999/xlink" x="0px" y="0px"
	 viewBox="0 0 61.7 61.7" style="enable-background:new 0 0 61.7 61.7;" xml:space="preserve">
<style type="text/css">
	.st0{fill:#7FD244;}
</style>
<g>
	<path class="st0" d="M33.9,28.6l2.2-0.7c0.6-0.2,1.3,0.1,1.5,0.8c0.2,0.6-0.1,1.3-0.8,1.5l-2.2,0.7c-0.6,0.2-1.3-0.1-1.5-0.8
		C32.9,29.5,33.2,28.8,33.9,28.6z M34.1,33.3l1.2,1.6c0.4,0.5,0.3,1.3-0.3,1.7c-0.5,0.4-1.3,0.3-1.7-0.3l-1-1.5
		c-0.3-0.5-0.9-0.7-1.4-0.7c-0.6,0-1.1,0.3-1.4,0.7l-1.1,1.5c-0.4,0.5-1.1,0.6-1.7,0.3c-0.5-0.4-0.6-1.1-0.3-1.7l1.1-1.5
		c1.4-1.8,3.9-2.3,5.8-0.9C33.6,32.8,33.9,33.1,34.1,33.3z M30.8,23.6c0.7,0,1.2,0.5,1.2,1.2v1.9c0,2.3-1.9,4.2-4.2,4.2
		c-0.4,0-0.8-0.1-1.2-0.2l-1.8-0.6c-0.6-0.2-1-0.9-0.8-1.5s0.9-1,1.5-0.8l1.8,0.6c0.2,0,0.3,0.1,0.5,0.1c1,0,1.8-0.8,1.8-1.8v-1.9
		C29.7,24.2,30.2,23.6,30.8,23.6z M40.1,49.8c-0.7,0-1.3-0.3-1.8-0.7l-5.8-5.8c-0.5-0.5-1.1-0.6-1.7-0.6c-0.6,0-1.2,0.1-1.7,0.6
		l-5.8,5.8c-0.5,0.5-1.1,0.7-1.8,0.7c-1.4,0-2.6-1.2-2.6-2.6V16.5c0-2.6,2.1-4.7,4.7-4.7h13.1c0.7,0,1.2,0.5,1.2,1.2
		s-0.5,1.2-1.2,1.2h-13c-1.3,0-2.4,1.1-2.4,2.4v29.9c0,0.3,0.3,0.6,0.6,0.6c0.2,0,0.3-0.1,0.4-0.2l5.1-5.1c0.9-0.9,2.1-1.4,3.4-1.4
		c1.2,0,2.4,0.5,3.4,1.4l5.1,5.1c0.1,0.1,0.2,0.2,0.4,0.2c0.3,0,0.6-0.3,0.6-0.6V22.5c0-0.7,0.5-1.2,1.2-1.2s1.2,0.5,1.2,1.2v24.7
		C42.7,48.7,41.6,49.8,40.1,49.8z M40.9,16c-0.7,0-1.2-0.5-1.2-1.2s0.5-1.2,1.2-1.2s1.2,0.5,1.2,1.2S41.6,16,40.9,16z"/>
</g>
</svg>
