<?xml version="1.0" encoding="utf-8"?>
<!-- Generator: Adobe Illustrator 23.0.3, SVG Export Plug-In . SVG Version: 6.00 Build 0)  -->
<svg version="1.1" id="Camada_1" xmlns="http://www.w3.org/2000/svg" xmlns:xlink="http://www.w3.org/1999/xlink" x="0px" y="0px"
	 viewBox="0 0 61.7 61.7" style="enable-background:new 0 0 61.7 61.7;" xml:space="preserve">
<style type="text/css">
	.st0{fill:#7FD244;}
</style>
<g>
	<path class="st0" d="M24.7,25c-0.7,0-1.2-0.5-1.2-1.2c0-3.9,3.2-7.1,7.1-7.1c0.7,0,1.2,0.5,1.2,1.2S31.2,19,30.5,19
		c-2.6,0-4.8,2.1-4.8,4.8C25.9,24.3,25.4,25,24.7,25L24.7,25z M38,32.9C38,32.9,38.2,32.8,38,32.9c-0.2,0.2-0.3,0.6-0.3,0.9v1.8
		c0,2.6-2.1,4.8-4.7,4.8h-1.2H27c-0.7,0-1.2,0.5-1.2,1.2s0.5,1.2,1.2,1.2h1.8h2.8h0.2c0.7,0,1.2,0.5,1.2,1.2s-0.5,1.2-1.2,1.2H27
		c-2,0-3.6-1.6-3.6-3.6s1.6-3.6,3.6-3.6h1.8H30h3c1.3,0,2.4-1.1,2.4-2.4v-1.8c0-1.1,0.5-2.1,1.3-2.7c-0.1,0.1-0.1,0.1,0,0
		c2.1-1.7,3.5-4.4,3.5-7.4c0-5.2-4.3-9.5-9.5-9.5s-9.5,4.3-9.5,9.5c0,3,1.4,5.6,3.5,7.4c0.1,0.1,0.1,0.1,0,0
		c0.8,0.7,1.3,1.6,1.3,2.7v0.6c0,0.7-0.5,1.2-1.2,1.2s-1.2-0.5-1.2-1.2v-0.6c0-0.3-0.1-0.7-0.3-0.9l0,0c-2.7-2.2-4.4-5.5-4.4-9.2
		c0-6.6,5.3-11.9,11.9-11.9s11.9,5.3,11.9,11.9C42.5,27.5,40.8,30.8,38,32.9L38,32.9z M29.5,47.4h2.4c0.7,0,1.2,0.5,1.2,1.2
		s-0.5,1.2-1.2,1.2h-2.4c-0.7,0-1.2-0.5-1.2-1.2C28.2,48,28.8,47.4,29.5,47.4L29.5,47.4z M36.5,42.8c0.7,0,1.2,0.5,1.2,1.2
		s-0.5,1.2-1.2,1.2s-1.2-0.5-1.2-1.2S35.8,42.8,36.5,42.8L36.5,42.8z"/>
</g>
</svg>
