<?xml version="1.0" encoding="utf-8"?>
<!-- Generator: Adobe Illustrator 23.0.3, SVG Export Plug-In . SVG Version: 6.00 Build 0)  -->
<svg version="1.1" id="Camada_1" xmlns="http://www.w3.org/2000/svg" xmlns:xlink="http://www.w3.org/1999/xlink" x="0px" y="0px"
	 viewBox="0 0 61.7 61.7" style="enable-background:new 0 0 61.7 61.7;" xml:space="preserve">
<style type="text/css">
	.st0{fill:#7FD244;}
</style>
<g>
	<path class="st0" d="M43.7,25c-1.9,0-3.5-1.6-3.5-3.5c0-0.6,0.5-1.2,1.2-1.2c0.6,0,1.2,0.5,1.2,1.2c0,0.6,0.5,1.2,1.2,1.2
		c0.6,0,1.2,0.5,1.2,1.2C44.9,24.5,44.4,25,43.7,25L43.7,25z M41.4,40.1c0,0.6-0.5,1.2-1.2,1.2c-0.6,0-1.2-0.5-1.2-1.2
		c0-0.6,0.5-1.2,1.2-1.2S41.4,39.4,41.4,40.1L41.4,40.1z M37.5,30.3L36.8,31c-0.5,0.5-1.2,0.5-1.6,0c-0.5-0.5-0.5-1.2,0-1.6l0.7-0.7
		c1.8-1.8,4.7-1.8,6.5,0l2.5,2.5c0.5,0.5,0.5,1.2,0,1.6c-0.5,0.5-1.2,0.5-1.6,0l-2.6-2.5C39.8,29.4,38.4,29.4,37.5,30.3L37.5,30.3z
		 M44.9,45.9H17.1c-2.6,0-4.6-2.1-4.6-4.6v-3.5c0-0.6,0.5-1.2,1.2-1.2c0.6,0,1.2,0.5,1.2,1.2v3.5c0,1.3,1,2.3,2.3,2.3h27.7
		c1.3,0,2.3-1,2.3-2.3V20.4c0-1.3-1-2.3-2.3-2.3H17.1c-1.3,0-2.3,1-2.3,2.3v11.2c0,0.3,0.3,0.6,0.6,0.6c0.1,0,0.3-0.1,0.4-0.1
		l5.6-5.6c1.8-1.8,4.7-1.8,6.5,0l9.7,9.7c0.2,0.2,0.4,0.5,0.4,0.9c0,0.6-0.5,1.2-1.2,1.2c-0.4,0-0.7-0.2-0.9-0.4l0,0l-9.7-9.7
		c-0.9-0.9-2.4-0.9-3.3,0l-5.6,5.6c-0.5,0.5-1.2,0.8-2,0.8c-1.6,0-2.9-1.3-2.9-2.9V20.4c0-2.6,2.1-4.6,4.6-4.6h27.7
		c2.6,0,4.6,2.1,4.6,4.6v20.8C49.5,43.8,47.4,45.9,44.9,45.9L44.9,45.9z"/>
</g>
</svg>
