<?xml version="1.0" encoding="utf-8"?>
<!-- Generator: Adobe Illustrator 23.0.3, SVG Export Plug-In . SVG Version: 6.00 Build 0)  -->
<svg version="1.1" id="Camada_1" xmlns="http://www.w3.org/2000/svg" xmlns:xlink="http://www.w3.org/1999/xlink" x="0px" y="0px"
	 viewBox="0 0 61.7 61.7" style="enable-background:new 0 0 61.7 61.7;" xml:space="preserve">
<style type="text/css">
	.st0{fill:#7FD244;}
</style>
<g>
	<path class="st0" d="M27.4,25.1c0-0.6,0.5-1.2,1.2-1.2c0.6,0,1.2,0.5,1.2,1.2s-0.5,1.2-1.2,1.2C27.9,26.2,27.4,25.6,27.4,25.1
		L27.4,25.1z M48.5,33.6C48.5,33.6,48.4,33.7,48.5,33.6c-0.1,0.2-0.2,0.2-0.3,0.3s-0.1,0.2-0.2,0.2c-0.6,0.6-1.4,0.9-2.1,1
		c-0.1,0-0.2,0-0.3,0c-0.6,0-1.2-0.5-1.2-1.2c0-0.6,0.5-1.2,1.2-1.2l0,0c0.3,0,0.6-0.1,0.8-0.3l0.1-0.1c0.4-0.4,0.6-0.9,0.6-1.5V17
		c0-1.3-1-2.3-2.3-2.3H30.9c-0.6,0-1.1,0.2-1.5,0.6l-0.1,0.1c-0.5,0.5-0.5,1.2,0,1.6l0.9,0.9c0.3,0.4,0.5,0.9,0.5,1.5
		c0,1.3-1,2.3-2.3,2.3H17.6c-1.6,0-2.9,1.3-2.9,2.9v19.7c0,1.6,1.3,2.9,2.9,2.9h19.7c1.6,0,2.9-1.3,2.9-2.9V33.6
		c0-0.5-0.4-0.9-0.9-0.9c-0.2,0-0.5,0.1-0.6,0.3l0,0l-7,6.9c-1.8,1.8-4.8,1.8-6.6,0l-3.3-3.3c-1.8-1.8-1.8-4.8,0-6.6l2.4-2.4l0,0
		c0.2-0.2,0.5-0.3,0.8-0.3c0.6,0,1.2,0.5,1.2,1.2c0,0.3-0.1,0.6-0.4,0.8l-2.3,2.4c-0.9,0.9-0.9,2.4,0,3.3l3.3,3.3
		c0.9,0.9,2.4,0.9,3.3,0l7.4-7.4l0,0c0.5-0.5,1.3-0.9,2.1-0.9c1.6,0,2.9,1.3,2.9,2.9v0.6v2.6v8.7c0,2.6-2.1,4.6-4.6,4.6H17
		c-2.6,0-4.6-2.1-4.6-4.6V24c0-2.6,2.1-4.6,4.6-4.6h9.9c0.3,0,0.6-0.3,0.6-0.6c0-0.2-0.1-0.3-0.2-0.4l0,0c-1.1-1.4-1-3.4,0.2-4.6
		c0.1-0.1,0.2-0.1,0.2-0.2c0.1-0.1,0.1-0.1,0.2-0.2l0.1-0.1c0.8-0.6,1.7-0.9,2.7-0.9h13.9c2.6,0,4.6,2.1,4.6,4.6v13.9
		C49.4,31.9,49,32.8,48.5,33.6L48.5,33.6z"/>
</g>
</svg>
