<?xml version="1.0" encoding="utf-8"?>
<!-- Generator: Adobe Illustrator 23.0.3, SVG Export Plug-In . SVG Version: 6.00 Build 0)  -->
<svg version="1.1" id="Camada_1" xmlns="http://www.w3.org/2000/svg" xmlns:xlink="http://www.w3.org/1999/xlink" x="0px" y="0px"
	 viewBox="0 0 61.7 61.7" style="enable-background:new 0 0 61.7 61.7;" xml:space="preserve">
<style type="text/css">
	.st0{fill:#7FD244;}
</style>
<g>
	<path class="st0" d="M49.8,40.8c-0.3,5-4.4,9-9.5,9H32c-0.7,0-1.2-0.5-1.2-1.2s0.5-1.2,1.2-1.2h8.3c3.9,0,7.1-3.2,7.1-7.1v-4.7
		v-3.6c0-2-1.6-3.6-3.6-3.6h-3c-2,0-3.6-1.6-3.6-3.6c0-0.4,0.1-0.8,0.2-1.1c0.3-0.9,0.4-1.6,0.4-2.4v-4.8c0-1.3-1.1-2.4-2.4-2.4
		c-1.3,0-2.4,1.1-2.4,2.4v1.2v0.6c0,2.3-2.5,5.1-5,7.6c-0.7,0.7-1.6,1.5-2.6,2.2c-1.1,0.8-1.8,2.1-1.8,3.6v9.8v1.2v1.8
		c0,0.4-0.1,0.7-0.2,1c0,0.1-0.1,0.2-0.2,0.4c0,0,0,0.1-0.1,0.1C23,46,23,46.1,22.9,46.2c0,0,0,0.1-0.1,0.1
		c-0.1,0.2-0.3,0.3-0.4,0.4c-0.1,0-0.1,0.1-0.2,0.1s-0.1,0.1-0.2,0.1C21.9,47,21.8,47,21.7,47c-0.1,0-0.1,0.1-0.2,0.1
		s-0.2,0.1-0.3,0.1c-0.1,0-0.1,0-0.2,0c-0.2,0-0.4,0.1-0.5,0.1h-1.8h-0.6h-1.5c-2.6,0-4.8-2.1-4.8-4.7V30.8c0-2.6,2.1-4.8,4.8-4.8
		h1.2c0.7,0,1.2,0.5,1.2,1.2s-0.5,1.2-1.2,1.2h-1.2c-1.3,0-2.4,1.1-2.4,2.4v11.9c0,1.3,1.1,2.4,2.4,2.4h1.8H19h1.2
		c0.7,0,1.2-0.5,1.2-1.2v-1.2V31.8c0-2.2,1.1-4.2,2.7-5.4c0.2-0.1,0.4-0.3,0.6-0.4c0.1-0.1,0.2-0.2,0.3-0.3c3-2.4,5.9-5.5,5.9-9
		c0-2.6,2.1-4.7,4.8-4.7c2.6,0,4.7,2.1,4.7,4.7V22c0,0.9-0.2,2-0.5,2.9l0,0c0,0.1-0.1,0.2-0.1,0.3c0,0.5,0.4,0.9,0.9,0.9h4.5
		c2.6,0,4.7,2.1,4.7,4.8v4.8v4.7C49.8,40.5,49.8,40.6,49.8,40.8L49.8,40.8z M27.3,45c0.7,0,1.2,0.5,1.2,1.2s-0.5,1.2-1.2,1.2
		s-1.2-0.5-1.2-1.2S26.6,45,27.3,45L27.3,45z"/>
</g>
</svg>
