<?xml version="1.0" encoding="utf-8"?>
<!-- Generator: Adobe Illustrator 23.0.3, SVG Export Plug-In . SVG Version: 6.00 Build 0)  -->
<svg version="1.1" id="Camada_1" xmlns="http://www.w3.org/2000/svg" xmlns:xlink="http://www.w3.org/1999/xlink" x="0px" y="0px"
	 viewBox="0 0 61.7 61.7" style="enable-background:new 0 0 61.7 61.7;" xml:space="preserve">
<style type="text/css">
	.st0{fill:#7FD244;}
</style>
<g>
	<path class="st0" d="M27.2,28.5H39c0.7,0,1.2,0.5,1.2,1.2s-0.5,1.2-1.2,1.2H27.2c-0.7,0-1.2-0.5-1.2-1.2S26.6,28.5,27.2,28.5
		L27.2,28.5z M27.2,38H39c0.7,0,1.2,0.5,1.2,1.2c0,0.7-0.5,1.2-1.2,1.2H27.2c-0.7,0-1.2-0.5-1.2-1.2C26,38.5,26.6,38,27.2,38
		L27.2,38z M27.2,33.2H39c0.7,0,1.2,0.5,1.2,1.2s-0.5,1.2-1.2,1.2H27.2c-0.7,0-1.2-0.5-1.2-1.2C26,33.8,26.6,33.2,27.2,33.2
		L27.2,33.2z M22.5,28.5c0.7,0,1.2,0.5,1.2,1.2s-0.5,1.2-1.2,1.2s-1.2-0.5-1.2-1.2S21.8,28.5,22.5,28.5L22.5,28.5z M22.5,38
		c0.7,0,1.2,0.5,1.2,1.2c0,0.7-0.5,1.2-1.2,1.2s-1.2-0.5-1.2-1.2C21.3,38.5,21.8,38,22.5,38L22.5,38z M22.5,33.2
		c0.7,0,1.2,0.5,1.2,1.2s-0.5,1.2-1.2,1.2s-1.2-0.5-1.2-1.2C21.3,33.8,21.8,33.2,22.5,33.2L22.5,33.2z M42.6,49.8H19
		c-2.6,0-4.7-2.1-4.7-4.7V21.4c0-2.6,2.1-4.7,4.7-4.7h2c0.2,0,0.5-0.2,0.5-0.4l0,0c0.4-1.1,1.5-2,2.8-2h2.4c0.8-1.4,2.3-2.4,4.1-2.4
		c1.7,0,3.3,1,4.1,2.4h1.8c0.7,0,1.2,0.5,1.2,1.2s-0.5,1.2-1.2,1.2h-1.8c-0.9,0-1.6-0.5-2-1.1c-0.4-0.7-1.2-1.2-2.1-1.2
		c-0.9,0-1.7,0.5-2.1,1.2l0,0c-0.4,0.7-1.2,1.1-2,1.1h-1.8c-0.5,0-0.9,0.3-1.1,0.8l0,0c-0.3,0.9-1.2,1.6-2.2,1.6h-0.2h-0.6H19
		c-1.3,0-2.4,1.1-2.4,2.4v23.7c0,1.3,1.1,2.4,2.4,2.4h23.7c1.3,0,2.4-1.1,2.4-2.4V21.4c0-1.3-1.1-2.4-2.4-2.4h-1.8
		c-0.3,0-0.6,0.3-0.6,0.6v1.2c0,1.6-1.3,3-3,3h-13c-0.8,0-1.6-0.3-2.1-0.9l0,0c-0.2-0.2-0.4-0.6-0.4-0.9c0-0.7,0.6-1.3,1.3-1.3
		c0.4,0,0.7,0.1,0.9,0.4c0.2,0.2,0.5,0.3,0.8,0.3h11.8c0.7,0,1.2-0.5,1.2-1.2V19c0-1.3,1.1-2.4,2.4-2.4h2.4c2.6,0,4.7,2.1,4.7,4.7
		V45C47.3,47.7,45.2,49.8,42.6,49.8L42.6,49.8z"/>
</g>
</svg>
