<?xml version="1.0" encoding="utf-8"?>
<!-- Generator: Adobe Illustrator 23.0.3, SVG Export Plug-In . SVG Version: 6.00 Build 0)  -->
<svg version="1.1" id="Camada_1" xmlns="http://www.w3.org/2000/svg" xmlns:xlink="http://www.w3.org/1999/xlink" x="0px" y="0px"
	 viewBox="0 0 61.7 61.7" style="enable-background:new 0 0 61.7 61.7;" xml:space="preserve">
<style type="text/css">
	.st0{fill:#7FD244;}
</style>
<g>
	<path class="st0" d="M29.7,43c0.7,0,1.2,0.5,1.2,1.2s-0.5,1.2-1.2,1.2s-1.2-0.5-1.2-1.2C28.5,43.7,29,43,29.7,43L29.7,43z
		 M28.5,34.5c0-0.7,0.5-1.2,1.2-1.2c0.7,0,1.2,0.5,1.2,1.2v4.9c0,0.7-0.5,1.2-1.2,1.2s-1.2-0.5-1.2-1.2L28.5,34.5L28.5,34.5z
		 M45.5,50.4H16.3c-2.7,0-4.9-2.2-4.9-4.9v-11c0-0.7,0.5-1.2,1.2-1.2s1.2,0.5,1.2,1.2v10.4c0,1.7,1.4,3,3,3h28c1.7,0,3-1.4,3-3v-11
		c0-1.7-1.4-3-3-3H23h-0.6l0,0c-2,0-3.7-1.6-3.7-3.7v-0.6v-3c0-6.7,5.5-12.2,12.2-12.2s12.2,5.5,12.2,12.2v1.2
		c0,0.7-0.5,1.2-1.2,1.2s-1.2-0.5-1.2-1.2v-1.2c0-5.4-4.4-9.8-9.7-9.8c-5.4,0-9.8,4.4-9.8,9.8v1.8v0.5v0.8c0,1,0.8,1.8,1.8,1.8h0.8
		h0.5H40h0.6H43h0.6h1.8c2.7,0,4.9,2.2,4.9,4.9v12.2C50.4,48.2,48.2,50.4,45.5,50.4L45.5,50.4z M15.1,30.8c-0.7,0-1.2-0.5-1.2-1.2
		s0.5-1.2,1.2-1.2s1.2,0.5,1.2,1.2C16.3,30.3,15.7,30.8,15.1,30.8L15.1,30.8z"/>
</g>
</svg>
