<?xml version="1.0" encoding="utf-8"?>
<!-- Generator: Adobe Illustrator 23.0.3, SVG Export Plug-In . SVG Version: 6.00 Build 0)  -->
<svg version="1.1" id="Camada_1" xmlns="http://www.w3.org/2000/svg" xmlns:xlink="http://www.w3.org/1999/xlink" x="0px" y="0px"
	 viewBox="0 0 61.7 61.7" style="enable-background:new 0 0 61.7 61.7;" xml:space="preserve">
<style type="text/css">
	.st0{fill:#7FD244;}
</style>
<g>
	<path class="st0" d="M17.6,40.4c-0.5-0.5-0.5-1.2,0-1.7l3.4-3.4c0.5-0.5,1.2-0.5,1.7,0s0.5,1.2,0,1.7l-3.4,3.4
		C18.9,40.9,18.1,40.9,17.6,40.4L17.6,40.4z M42.4,40.4L39,37c-0.5-0.5-0.5-1.2,0-1.7s1.2-0.5,1.7,0l3.4,3.4c0.5,0.5,0.5,1.2,0,1.7
		C43.7,40.9,42.9,40.9,42.4,40.4L42.4,40.4z M49,22L34.3,35.5c-1.9,1.9-5,1.9-6.9,0l-8.6-8.6l-0.5-0.5L16,24.1l0,0
		c-0.2-0.3-0.5-0.5-0.9-0.5c-0.7,0-1.2,0.5-1.2,1.2v3.4v1.4v12.2c0,1.3,1.1,2.4,2.4,2.4h29.2c1.3,0,2.4-1.1,2.4-2.4V27.1
		c0-0.7,0.5-1.2,1.2-1.2s1.2,0.5,1.2,1.2v14.6c0,2.7-2.2,4.9-4.9,4.9H16.3c-2.7,0-4.9-2.2-4.9-4.9v-17c0-2,1.6-3.7,3.7-3.7
		c0.9,0,1.8,0.4,2.4,1.1l0,0l11.7,11.7c1,1,2.5,1,3.4,0l14.6-13.4c0.5-0.5,0.7-1.1,0.7-1.7l0,0c0-1.3-1.1-1.2-2.4-1.2H19.9
		c-0.7,0-1.2-0.5-1.2-1.2c0-0.7,0.5-1.2,1.2-1.2h25.6c2.2,0,4.1,0.7,4.7,2.4l0,0C50.6,19,50.2,20.8,49,22L49,22z M15,17.4
		c-0.7,0-1.2-0.5-1.2-1.2c0-0.7,0.5-1.2,1.2-1.2s1.2,0.5,1.2,1.2C16.3,16.8,15.7,17.4,15,17.4L15,17.4z"/>
</g>
</svg>
