<?xml version="1.0" encoding="utf-8"?>
<!-- Generator: Adobe Illustrator 23.0.3, SVG Export Plug-In . SVG Version: 6.00 Build 0)  -->
<svg version="1.1" id="Camada_1" xmlns="http://www.w3.org/2000/svg" xmlns:xlink="http://www.w3.org/1999/xlink" x="0px" y="0px"
	 viewBox="0 0 61.7 61.7" style="enable-background:new 0 0 61.7 61.7;" xml:space="preserve">
<style type="text/css">
	.st0{fill:#7FD244;}
</style>
<g>
	<path class="st0" d="M45.8,23.5l-0.2-0.1c-0.3-0.4-0.3-1.1,0.1-1.4l0.7-0.6c1.6-1.6,1.6-4.3,0-5.9c-0.8-0.8-1.8-1.2-2.9-1.2
		c-1.1,0-2.2,0.4-2.9,1.2L40,16.1c-0.4,0.4-1,0.4-1.4,0.1l-0.1-0.1c-5.8-4.3-12.4-6.7-18.8-6.7c-0.3,0-0.7,0-1,0
		c-0.4,0-0.7,0.2-0.9,0.6c-0.2,0.5,0,1.1,0.5,1.3c4.8,2.1,10.4,5.8,14.9,9.6c0.5,0.4,0.5,1.1,0.1,1.6l-0.7,0.8l-22,21.9
		c-1.6,1.6-1.6,4.3,0,5.9c0.8,0.8,1.8,1.2,2.9,1.2s2.2-0.4,2.9-1.2l21.4-21.2c0.4-0.4,0.4-0.9,0-1.3l0.1-0.2c-0.4-0.4-0.9-0.4-1.3,0
		L15.1,49.7c-0.8,0.8-2.3,0.8-3.2,0c-0.9-0.9-0.9-2.3,0-3.2l21.9-21.8c0,0,1.4-1.4,2.3-2.3c0.4-0.4,0.4-1.1,0-1.5l-1.5-1.5
		c-3.6-3.1-7.3-5.7-11.2-7.8c4.6,0.7,9.2,2.7,13.3,5.7l1.8,1.4c0.4,0.3,1,0.3,1.4-0.1l1.2-1.2l0.7-0.7c0.4-0.4,1-0.7,1.6-0.7
		s1.2,0.2,1.6,0.7c0.9,0.9,0.9,2.3,0,3.2l-0.7,0.7l-1.2,1.2c-0.4,0.4-0.4,1-0.1,1.5l1.5,1.8c3,4.1,4.9,8.7,5.6,13.2
		c-1.9-3.5-4.3-6.9-7-10.2c-0.3-0.4-1-0.4-1.4-0.1l-0.1,0.1c-0.3,0.3-0.4,0.9-0.1,1.2c3.7,4.4,6.8,9.3,8.9,14
		c0.2,0.4,0.5,0.6,0.9,0.6c0.1,0,0.1,0,0.2,0c0.4-0.1,0.8-0.5,0.8-0.9C52.6,36.5,50.2,29.5,45.8,23.5z"/>
	<path class="st0" d="M39.8,26c0.6,0,1,0.5,1,1c0,0.6-0.5,1-1,1c-0.6,0-1-0.5-1-1C38.7,26.5,39.2,26,39.8,26L39.8,26z"/>
</g>
</svg>
