<?xml version="1.0" encoding="utf-8"?>
<!-- Generator: Adobe Illustrator 23.0.3, SVG Export Plug-In . SVG Version: 6.00 Build 0)  -->
<svg version="1.1" id="Camada_1" xmlns="http://www.w3.org/2000/svg" xmlns:xlink="http://www.w3.org/1999/xlink" x="0px" y="0px"
	 viewBox="0 0 61.7 61.7" style="enable-background:new 0 0 61.7 61.7;" xml:space="preserve">
<style type="text/css">
	.st0{fill:#7FD244;}
</style>
<g>
	<path class="st0" d="M49.6,48.3l-5.1,0.1c0.5-0.7,0.7-1.6,0.7-2.5c0-0.2,0-0.3,0-0.5c2.3-0.4,4-2.4,4-4.9V22.1
		c0-0.6-0.5-1.1-1.1-1.1h-2.3c0-0.1,0-0.3,0-0.4c0-3.2-2.5-5.7-5.7-5.7c-0.5,0-0.9,0.1-1.3,0.2c-1.3-2.4-3.8-4-6.7-4
		c-3.5,0-6.5,2.4-7.4,5.7c-0.2,0-0.4,0-0.6,0c-2.7,0-5.1,1.7-5.6,4.2h-2.4c-0.3,0-0.6,0.1-0.8,0.3c-0.2,0.2-0.3,0.5-0.3,0.8v18.4
		c0,2.4,1.7,4.4,4,4.8c0,0.2,0,0.3,0,0.5c0,0.9,0.3,1.8,0.7,2.5H15c-0.6,0-1.1,0.5-1.1,1.1s0.5,1.1,1.1,1.1l34.6-0.1
		c0.6,0,1.1-0.5,1.1-1.1C50.8,48.8,50.3,48.3,49.6,48.3z M23.8,48.3c-1.4,0-2.5-1.1-2.5-2.5s1.1-2.5,2.5-2.5s2.5,1.1,2.5,2.5
		C26.3,47.2,25.1,48.3,23.8,48.3z M27.8,48.3c0.5-0.7,0.7-1.6,0.7-2.5c0-0.2,0-0.3,0-0.4h7.2c0,0.2,0,0.3,0,0.4
		c0,0.9,0.3,1.8,0.7,2.5H27.8z M40.5,48.3c-1.4,0-2.5-1.1-2.5-2.5s1.1-2.5,2.5-2.5s2.5,1.1,2.5,2.5C43,47.2,41.9,48.3,40.5,48.3z
		 M40.5,41c-1.6,0-3.1,0.8-4,2.1h-8.8c-0.9-1.3-2.3-2.1-4-2.1s-3.1,0.8-4,2.1c-1.4-0.1-2.5-1.3-2.5-2.7V23.2H47v17.2
		c0,1.4-1.1,2.6-2.5,2.7C43.6,41.9,42.1,41,40.5,41z"/>
	<path class="st0" d="M12.2,50.6c0.1,0,0.2,0,0.2-0.1c0.1,0,0.2-0.1,0.2-0.1c0.1,0,0.1-0.1,0.2-0.2c0,0,0.1-0.1,0.2-0.2
		c0-0.1,0.1-0.1,0.1-0.2s0-0.2,0.1-0.2c0-0.1,0-0.2,0-0.2c0-0.3-0.1-0.6-0.3-0.8c0,0-0.1-0.1-0.2-0.2c-0.1,0-0.1-0.1-0.2-0.1
		c-0.1,0-0.2,0-0.2-0.1c-0.4-0.1-0.8,0-1,0.3C11.1,48.7,11,49,11,49.3c0,0.1,0,0.2,0,0.2c0,0.1,0,0.2,0.1,0.2c0,0.1,0.1,0.2,0.1,0.2
		c0,0.1,0.1,0.1,0.2,0.2c0.2,0.2,0.5,0.3,0.8,0.3C12,50.6,12.1,50.6,12.2,50.6z"/>
</g>
</svg>
