<?xml version="1.0" encoding="utf-8"?>
<!-- Generator: Adobe Illustrator 23.0.3, SVG Export Plug-In . SVG Version: 6.00 Build 0)  -->
<svg version="1.1" id="Modo_de_isolamento" xmlns="http://www.w3.org/2000/svg" xmlns:xlink="http://www.w3.org/1999/xlink" x="0px"
	 y="0px" viewBox="0 0 512 640" style="enable-background:new 0 0 512 640;" xml:space="preserve">
<style type="text/css">
	.st0{fill:#7FD244;}
</style>
<g>
	<circle class="st0" cx="353" cy="488.2" r="12.9"/>
	<path class="st0" d="M275.3,312.2l-17.7-8.7c-31.7-15.7-39.2-20.1-39.2-39.1c0-31.6,35-33.2,42.1-33.2c38.3,0,41.3,25.4,41.3,33.2
		c0,7.5,6.1,13.5,13.5,13.5c7.5,0,13.5-6.1,13.5-13.5c0-32.1-21.5-54.8-55.3-59.4v-14.7c0-7.5-6.1-13.5-13.5-13.5
		c-7.5,0-13.5,6.1-13.5,13.5v14.9c-15.1,2.2-28,8.1-37.6,17.3c-11.4,10.8-17.5,25.3-17.5,42c0,36.6,22.8,47.8,54.3,63.3l17.7,8.8
		c31.7,15.6,39.2,20.1,39.2,39.1c0,7.7-3,32.8-42.1,32.8s-42.1-25.1-42.1-32.8c0-7.5-6.1-13.5-13.5-13.5s-13.5,6.1-13.5,13.5
		c0,31.5,21.4,54.1,55.1,58.9v15.2c0,7.5,6.1,13.5,13.5,13.5c7.5,0,13.5-6.1,13.5-13.5v-15.1c34.3-4.5,56.1-27.1,56.1-59
		C329.6,339,306.8,327.8,275.3,312.2z"/>
	<path class="st0" d="M256,113c-114.3,0-207,92.7-207,207c0,114.3,92.7,207,207,207c7.1,0,12.9-5.8,12.9-12.9
		c0-7.1-5.8-12.9-12.9-12.9C156,501.1,74.9,420,74.9,320S156,138.9,256,138.9S437.1,220,437.1,320c0,50-20.3,95.3-53.1,128.1l0,0
		c-2.3,2.3-3.8,5.6-3.8,9.1c0,7.1,5.8,12.9,12.9,12.9c3.8,0,7.2-1.7,9.6-4.3C440,428.4,463,376.9,463,320
		C463,205.7,370.3,113,256,113z"/>
</g>
</svg>
