<?xml version="1.0" encoding="utf-8"?>
<!-- Generator: Adobe Illustrator 23.0.3, SVG Export Plug-In . SVG Version: 6.00 Build 0)  -->
<svg version="1.1" id="Modo_de_isolamento" xmlns="http://www.w3.org/2000/svg" xmlns:xlink="http://www.w3.org/1999/xlink" x="0px"
	 y="0px" viewBox="0 0 512 640" style="enable-background:new 0 0 512 640;" xml:space="preserve">
<style type="text/css">
	.st0{fill:#393939;}
</style>
<g>
	<circle class="st0" cx="357.7" cy="496.3" r="13.6"/>
	<path class="st0" d="M276.2,311.9l-18.5-9.2c-33.3-16.4-41.1-21-41.1-41c0-33.1,36.7-34.8,44.1-34.8c40.2,0,43.3,26.6,43.3,34.8
		c0,7.8,6.4,14.2,14.2,14.2c7.8,0,14.2-6.4,14.2-14.2c0-33.6-22.5-57.4-58-62.2V184c0-7.8-6.4-14.2-14.2-14.2
		c-7.8,0-14.2,6.4-14.2,14.2v15.6c-15.8,2.3-29.3,8.5-39.4,18.1c-12,11.3-18.3,26.5-18.3,44c0,38.3,23.9,50.1,56.9,66.4l18.6,9.2
		c33.2,16.4,41.1,21,41.1,41c0,8.1-3.2,34.4-44.1,34.4s-44.1-26.3-44.1-34.4c0-7.8-6.4-14.2-14.2-14.2c-7.8,0-14.2,6.4-14.2,14.2
		c0,33.1,22.4,56.7,57.8,61.7v16c0,7.8,6.4,14.2,14.2,14.2c7.8,0,14.2-6.4,14.2-14.2v-15.9c36-4.7,58.8-28.4,58.8-61.9
		C333.1,339.9,309.2,328.2,276.2,311.9z"/>
	<path class="st0" d="M256,103c-119.8,0-217,97.2-217,217c0,119.9,97.2,217,217,217c7.5,0,13.6-6.1,13.6-13.6s-6.1-13.6-13.6-13.6
		c-104.9,0-189.9-85-189.9-189.9s85-189.9,189.9-189.9s189.9,85,189.9,189.9c0,52.4-21.3,99.9-55.6,134.3l0,0c-2.5,2.4-4,5.8-4,9.6
		c0,7.5,6.1,13.6,13.6,13.6c4,0,7.6-1.8,10.1-4.5c39-39.2,63-93.3,63-152.9C473,200.2,375.8,103,256,103z"/>
</g>
</svg>
