<?xml version="1.0" encoding="utf-8"?>
<!-- Generator: Adobe Illustrator 23.0.3, SVG Export Plug-In . SVG Version: 6.00 Build 0)  -->
<svg version="1.1" id="Camada_1" xmlns="http://www.w3.org/2000/svg" xmlns:xlink="http://www.w3.org/1999/xlink" x="0px" y="0px"
	 viewBox="0 0 61.7 61.7" style="enable-background:new 0 0 61.7 61.7;" xml:space="preserve">
<style type="text/css">
	.st0{fill:#BCBCBC;}
</style>
<g>
	<path class="st0" d="M32,27.4V32c0,0.7-0.5,1.2-1.2,1.2s-1.2-0.5-1.2-1.2v-4.8c0-0.7,0.5-1.2,1.2-1.2S32,26.7,32,27.4z M30.9,49.8
		c-5.9,0-10.7-4.8-10.7-10.7V32v-3.6c0-3.6,2.7-6.6,6.2-7.1c0,0,0,0,0.1,0h0.1c0,0,0,0,0.1,0c0.4-0.1,0.7-0.4,0.7-0.9v-0.4
		c0-2.6,2.6-3.6,4.7-3.6h2.4c1.3,0,2.4-1.1,2.4-2.4v-1c0-0.7,0.5-1.2,1.2-1.2s1.2,0.5,1.2,1.2v1.2c0,0.6-0.1,1.1-0.3,1.6l0,0
		c-0.5,1.3-1.5,2.3-2.8,2.8l0,0c-0.5,0.2-1,0.3-1.6,0.3h-2.4c-1.3,0-2.4,1.1-2.4,2.4s-1.1,2.4-2.4,2.4c-2.6,0-4.7,2.1-4.7,4.8V32
		v7.1c0,4.6,3.7,8.3,8.3,8.3s8.3-3.7,8.3-8.3V32v-3.6c0-2.6-2.1-4.8-4.7-4.8h-1.2c-0.7,0-1.2-0.5-1.2-1.2s0.5-1.2,1.2-1.2h1.1
		c3.9,0,7.1,3.2,7.1,7.1V32v7.1C41.5,45.1,36.8,49.8,30.9,49.8z"/>
</g>
</svg>
