<?xml version="1.0" encoding="utf-8"?>
<!-- Generator: Adobe Illustrator 23.0.3, SVG Export Plug-In . SVG Version: 6.00 Build 0)  -->
<svg version="1.1" id="Camada_1" xmlns="http://www.w3.org/2000/svg" xmlns:xlink="http://www.w3.org/1999/xlink" x="0px" y="0px"
	 viewBox="0 0 61.7 61.7" style="enable-background:new 0 0 61.7 61.7;" xml:space="preserve">
<style type="text/css">
	.st0{fill:#7FD244;}
</style>
<g>
	<path class="st0" d="M35.8,19.5c0-1.6,1.2-2.8,2.7-2.9c0.1,0,0.2,0,0.2,0h0.6c0.7,0,1.2,0.5,1.2,1.2s-0.5,1.2-1.2,1.2
		S38,19.6,38,20.3s-0.5,1.2-1.2,1.2s-1.2-0.5-1.2-1.2L35.8,19.5L35.8,19.5z M38.5,30.9c0.1,0,0.2,0,0.2,0h0.6c0.7,0,1.2,0.5,1.2,1.2
		s-0.5,1.2-1.2,1.2S38,33.8,38,34.5s-0.5,1.2-1.2,1.2s-1.2-0.5-1.2-1.2v-0.6C35.8,32.2,37,31,38.5,30.9L38.5,30.9z M35.8,26.7
		c0-1.6,1.2-2.8,2.7-2.9c0.1,0,0.2,0,0.2,0h0.6c0.7,0,1.2,0.5,1.2,1.2s-0.5,1.2-1.2,1.2S38,26.7,38,27.4s-0.5,1.2-1.2,1.2
		s-1.2-0.5-1.2-1.2L35.8,26.7L35.8,26.7z M28.5,19.5c0-1.6,1.2-2.8,2.7-2.9c0.1,0,0.2,0,0.2,0H32c0.7,0,1.2,0.5,1.2,1.2
		s-0.5,1.2-1.2,1.2c-0.7,0-1.2,0.5-1.2,1.2s-0.5,1.2-1.2,1.2s-1.2-0.5-1.2-1.2L28.5,19.5L28.5,19.5z M31.3,30.9c0.1,0,0.2,0,0.2,0
		h0.6c0.7,0,1.2,0.5,1.2,1.2s-0.5,1.2-1.2,1.2c-0.7,0-1.2,0.5-1.2,1.2s-0.5,1.2-1.2,1.2s-1.2-0.5-1.2-1.2v-0.6
		C28.5,32.2,29.7,31,31.3,30.9L31.3,30.9z M28.5,26.7c0-1.6,1.2-2.8,2.7-2.9c0.1,0,0.2,0,0.2,0H32c0.7,0,1.2,0.5,1.2,1.2
		s-0.5,1.2-1.2,1.2c-0.7,0-1.2,0.5-1.2,1.2s-0.5,1.2-1.2,1.2s-1.2-0.5-1.2-1.2L28.5,26.7L28.5,26.7z M21.4,19.5
		c0-1.6,1.2-2.8,2.7-2.9c0.1,0,0.2,0,0.2,0H25c0.7,0,1.2,0.5,1.2,1.2s-0.5,1.2-1.2,1.2s-1.2,0.5-1.2,1.2s-0.5,1.2-1.2,1.2
		s-1.2-0.5-1.2-1.2L21.4,19.5L21.4,19.5z M24.2,30.9c0.1,0,0.2,0,0.2,0H25c0.7,0,1.2,0.5,1.2,1.2s-0.5,1.2-1.2,1.2s-1.2,0.5-1.2,1.2
		s-0.5,1.2-1.2,1.2s-1.2-0.5-1.2-1.2v-0.6C21.4,32.2,22.6,31,24.2,30.9L24.2,30.9z M21.4,26.7c0-1.6,1.2-2.8,2.7-2.9
		c0.1,0,0.2,0,0.2,0H25c0.7,0,1.2,0.5,1.2,1.2s-0.5,1.2-1.2,1.2s-1.2,0.5-1.2,1.2s-0.5,1.2-1.2,1.2s-1.2-0.5-1.2-1.2L21.4,26.7
		L21.4,26.7z M17.9,38.5c0.7,0,1.2,0.5,1.2,1.2S18.6,41,17.9,41s-1.2-0.5-1.2-1.2C16.7,39,17.2,38.5,17.9,38.5L17.9,38.5z
		 M40.5,49.8h-4.2c-1.6,0-3-1.3-3-3v-5.3c0-0.7-0.5-1.2-1.2-1.2h-2.4c-0.7,0-1.2,0.5-1.2,1.2v5.3c0,1.6-1.3,3-3,3h-4.2
		c-2.6,0-4.8-2.1-4.8-4.8v-1.2c0-0.7,0.5-1.2,1.2-1.2c0.7,0,1.2,0.5,1.2,1.2V45c0,1.3,1.1,2.4,2.4,2.4h3.9c0.5,0,0.9-0.4,0.9-0.9V41
		c0-1.6,1.3-3,3-3h3.6c1.6,0,3,1.3,3,3v5.6c0,0.5,0.4,0.9,0.9,0.9h3.9c1.3,0,2.4-1.1,2.4-2.4V16.6c0-1.3-1.1-2.4-2.4-2.4h-19
		c-1.3,0-2.4,1.1-2.4,2.4V32c0,0.7-0.5,1.2-1.2,1.2c-0.7,0-1.2-0.5-1.2-1.2V16.6c0-2.6,2.1-4.7,4.8-4.7h19c2.6,0,4.8,2.1,4.8,4.7V45
		C45.2,47.7,43,49.8,40.5,49.8L40.5,49.8z"/>
</g>
</svg>
