<?xml version="1.0" encoding="utf-8"?>
<!-- Generator: Adobe Illustrator 23.0.3, SVG Export Plug-In . SVG Version: 6.00 Build 0)  -->
<svg version="1.1" id="Camada_1" xmlns="http://www.w3.org/2000/svg" xmlns:xlink="http://www.w3.org/1999/xlink" x="0px" y="0px"
	 viewBox="0 0 61.7 61.7" style="enable-background:new 0 0 61.7 61.7;" xml:space="preserve">
<style type="text/css">
	.st0{fill:#7FD244;}
</style>
<g>
	<path class="st0" d="M45.1,40.4h-1.2c-0.7,0-1.2-0.5-1.2-1.2s0.5-1.2,1.2-1.2h1.2c1.3,0,2.4-1.1,2.4-2.4V32c0-0.1,0-0.2,0-0.3v-0.1
		c0,0,0-0.1-0.1-0.1c-0.3-0.5-0.9-1.1-1.8-1.2c-1.1-0.4-2.5-0.6-4-0.6s-2.9,0.2-3.9,0.6c-0.5,0.1-1,0.3-1.3,0.6l0,0
		c-0.2,0.2-0.4,0.3-0.7,0.3c-0.6,0-1.1-0.5-1.1-1.1c0-0.4,0.2-0.8,0.6-1c0.6-0.5,1.4-0.9,2.3-1.2c-1-1-1.6-2.3-1.7-3.7
		c0-0.2,0-0.3,0-0.5v-3.6c0-2.6,2.1-4.7,4.8-4.7H43c2.6,0,4.7,2.1,4.7,4.7v3.6c0,0.7-0.5,1.2-1.2,1.2s-1.2-0.5-1.2-1.2v-3.6
		c0-1.3-1.1-2.4-2.4-2.4h-2.4c-1.3,0-2.4,1.1-2.4,2.4v3.6c0,2,1.6,3.6,3.6,3.6c4.4,0,8,1.9,8.3,4.4c0,0.1,0,0.2,0,0.3v3.6
		C49.9,38.3,47.8,40.4,45.1,40.4L45.1,40.4z M32.7,30.2v0.1l0,0l0,0c-0.2,0.4-0.6,0.7-1.1,0.7c-0.7,0-1.2-0.5-1.2-1.2
		c0-0.2,0-0.3,0.1-0.5l0,0c0.3-0.6,0.4-1.3,0.4-2c0-0.3,0-0.5-0.1-0.8c0-0.2,0.1-0.4,0.1-0.7V21c0-1.8-1.4-3.2-3.2-3.2h-3.2
		c-1.7,0-3.2,1.4-3.2,3.2v4.8c0,0.2,0,0.5,0.1,0.7c0,0.3-0.1,0.5-0.1,0.8c0,2.6,2.1,4.8,4.8,4.8c7.6,0,13.7,2.7,14.2,6.1
		c0,0.1,0,0.3,0,0.4v3c0,2.6-2.1,4.7-4.8,4.7h-19c-2.6,0-4.7-2.1-4.7-4.7v-3c0-0.1,0-0.3,0-0.4c0.2-1.2,1-2.3,2.4-3.2
		c0.2-0.2,0.4-0.3,0.7-0.3c0.6,0,1.1,0.5,1.1,1.1c0,0.4-0.2,0.7-0.5,0.9l0,0c-0.9,0.6-1.3,1.2-1.3,1.9v3c0,1.3,1.1,2.4,2.4,2.4h19
		c1.3,0,2.4-1.1,2.4-2.4v-3c0-2.3-5.3-4.2-11.9-4.2c-1.9,0-3.6-0.8-4.9-2c-0.3-0.3-0.6-0.7-0.9-1.1s-0.5-0.8-0.7-1.2l0,0
		c-0.1-0.2-0.1-0.4-0.2-0.6v-0.1c-0.1-0.2-0.1-0.3-0.1-0.5c0-0.1,0-0.1,0-0.2c0-0.2-0.1-0.4-0.1-0.6V28c0-0.2,0-0.5,0-0.7
		c0-0.1,0-0.3,0-0.4s0-0.3,0-0.4V21c0-3.1,2.4-5.5,5.3-5.5h3.6c3,0,5.3,2.5,5.3,5.5v5.5c0,0.1,0,0.3,0,0.4s0,0.3,0,0.4
		C33.2,28.4,33,29.3,32.7,30.2L32.7,30.2z M19.6,33.9c0,0.7-0.5,1.2-1.2,1.2s-1.2-0.5-1.2-1.2s0.5-1.2,1.2-1.2S19.6,33.2,19.6,33.9
		L19.6,33.9z"/>
</g>
</svg>
