<?xml version="1.0" encoding="utf-8"?>
<!-- Generator: Adobe Illustrator 23.0.3, SVG Export Plug-In . SVG Version: 6.00 Build 0)  -->
<svg version="1.1" id="Camada_1" xmlns="http://www.w3.org/2000/svg" xmlns:xlink="http://www.w3.org/1999/xlink" x="0px" y="0px"
	 viewBox="0 0 61.7 61.7" style="enable-background:new 0 0 61.7 61.7;" xml:space="preserve">
<style type="text/css">
	.st0{fill:#7FD244;}
</style>
<path class="st0" d="M43.6,45.7h-2.3l0,0c-0.4,0-0.8,0.2-1,0.5l-1.5,2.3c0,0,0,0,0,0.1c-0.1,0.2-0.2,0.3-0.4,0.4
	c-1.1,1.1-2.8,1.1-3.9,0c-0.2-0.2-0.3-0.4-0.4-0.5c0,0,0-0.1-0.1-0.1l-1.9-3.3l0,0c-0.1-0.2-0.2-0.4-0.2-0.6c0-0.7,0.5-1.2,1.2-1.2
	c0.4,0,0.8,0.2,1,0.6l0,0l1.7,2.9c0.2,0.2,0.4,0.3,0.7,0.3s0.6-0.2,0.8-0.5l1.1-1.9c0.5-0.9,1.5-1.5,2.6-1.5l0,0h2.8
	c0.3,0,0.6-0.3,0.6-0.6c0-0.1,0-0.2-0.1-0.3l0,0l-1.9-3.4l0,0c-0.1-0.2-0.2-0.4-0.2-0.6c0-0.6,0.5-1.1,1.1-1.1
	c0.4,0,0.7,0.2,0.9,0.5l0,0l0,0l0,0l1.9,3.3l0,0c0.2,0.4,0.4,0.9,0.4,1.5C46.6,44.3,45.3,45.7,43.6,45.7z M33.9,21.9
	c0-0.7,0.5-1.2,1.2-1.2c0.3,0,0.6,0.1,0.8,0.3l0,0c1.3,1.3,2.1,3.1,2.1,5c0,3.9-3.2,7.1-7.1,7.1s-7.1-3.2-7.1-7.1s3.2-7.1,7.1-7.1
	c0.7,0,1.2,0.5,1.2,1.2c0,0.7-0.5,1.2-1.2,1.2c-2.6,0-4.8,2.1-4.8,4.8c0,2.6,2.1,4.8,4.8,4.8s4.8-2.1,4.8-4.8c0-1.3-0.5-2.5-1.4-3.3
	C34.1,22.5,33.9,22.2,33.9,21.9z M17.8,28.5c0.7,0,1.2,0.5,1.2,1.2s-0.5,1.2-1.2,1.2c-0.7,0-1.2-0.5-1.2-1.2S17.2,28.5,17.8,28.5z
	 M44.7,27.7c1.1,2.8-0.2,5.9-2.9,7.1L41,35.1c-0.1,0-0.2,0.1-0.3,0.1c-0.3,0.1-0.6,0.4-0.7,0.7l0,0l-0.4,1c-1.1,2.8-4.3,4.1-7.1,2.9
	l-0.7-0.3c-0.1,0-0.2-0.1-0.3-0.1c-0.3-0.1-0.7-0.1-1,0l0,0l-1,0.4c-2.8,1.1-5.9-0.2-7.1-2.9l-0.2-0.5c-0.1-0.2-0.3-0.4-0.6-0.4
	c-0.2,0-0.4,0.1-0.5,0.3l0,0l-3.5,6l0,0c0,0.1-0.1,0.2-0.1,0.3c0,0.3,0.3,0.6,0.6,0.6h2.8l0,0c1.1,0,2,0.6,2.6,1.5l1.1,1.9
	c0.2,0.3,0.4,0.5,0.8,0.5c0.3,0,0.5-0.1,0.7-0.3l2.7-4.7l0,0c0.2-0.4,0.6-0.6,1-0.6c0.7,0,1.2,0.5,1.2,1.2c0,0.2-0.1,0.4-0.1,0.6
	l0,0l0,0v0.1l-2.9,5c0,0,0,0.1-0.1,0.1c-0.1,0.2-0.3,0.4-0.4,0.5c-1.1,1.1-2.8,1.1-3.9,0c-0.1-0.1-0.3-0.3-0.4-0.4c0,0,0,0,0-0.1
	l-1.8-2.3c-0.2-0.3-0.6-0.5-1-0.5l0,0h-2.3c-1.6,0-2.9-1.3-2.9-3c0-0.5,0.1-1,0.4-1.5l0,0l3.4-5.9l0,0c0.5-0.9,1.5-1.5,2.6-1.5
	c1.2,0,2.2,0.7,2.7,1.7l0.3,0.7c0.6,1.4,2.2,2.1,3.6,1.5l1.2-0.5h0.1c0.8-0.3,1.8-0.4,2.7,0c0.1,0,0.1,0,0.2,0.1l1.2,0.5
	c1.4,0.6,3.1-0.1,3.6-1.5l0.5-1.3c0,0,0,0,0-0.1c0.3-0.8,1-1.5,1.9-1.9c0.1,0,0.1-0.1,0.2-0.1l1.2-0.5c1.4-0.6,2.1-2.2,1.5-3.6
	l-0.6-1.3l0,0c-0.3-0.8-0.4-1.8,0-2.7v-0.1l0.5-1.3c0.6-1.4-0.1-3.1-1.5-3.6l-1.2-0.6c-0.8-0.3-1.5-1-1.9-1.9l0,0L37.2,16
	c-0.6-1.4-2.2-2.1-3.6-1.5l-1.4,0.6l0,0c-0.8,0.3-1.8,0.4-2.7,0l0,0l-1.4-0.6c-1.4-0.6-3.1,0.1-3.6,1.5L24,17.2c0,0,0,0,0,0.1
	c-0.3,0.8-1,1.5-1.9,1.9l0,0l-1.3,0.6c-1.4,0.6-2.1,2.2-1.5,3.6l0.4,1l0,0c0.1,0.2,0.1,0.3,0.1,0.5c0,0.7-0.5,1.2-1.2,1.2
	c-0.5,0-0.9-0.3-1.1-0.8l-0.4-0.8c-1.1-2.8,0.2-5.9,2.9-7.1l1-0.4c0,0,0,0,0.1,0c0.3-0.1,0.6-0.4,0.7-0.7l0,0l0.4-1.1
	c1.1-2.8,4.3-4.1,7.1-2.9l1.1,0.4c0.3,0.1,0.7,0.1,1,0l1.1-0.4c2.8-1.1,5.9,0.2,7.1,2.9l0.4,1c0,0,0,0,0,0.1
	c0.1,0.3,0.4,0.6,0.7,0.7l1.1,0.5c2.8,1.1,4.1,4.3,2.9,7.1l-0.3,0.8c0,0.1-0.1,0.2-0.1,0.3c-0.1,0.3-0.1,0.7,0,1L44.7,27.7z"/>
</svg>
