<?xml version="1.0" encoding="utf-8"?>
<!-- Generator: Adobe Illustrator 23.0.3, SVG Export Plug-In . SVG Version: 6.00 Build 0)  -->
<svg version="1.1" id="Camada_1" xmlns="http://www.w3.org/2000/svg" xmlns:xlink="http://www.w3.org/1999/xlink" x="0px" y="0px"
	 viewBox="0 0 61.7 61.7" style="enable-background:new 0 0 61.7 61.7;" xml:space="preserve">
<style type="text/css">
	.st0{fill:#7FD244;}
</style>
<path class="st0" d="M45.5,26.3L45.5,26.3c2.4,0.2,4.3,2.2,4.3,4.7s-1.9,4.5-4.3,4.7l0,0c0,0,0,0-0.1,0c-0.6,0-1.3,0.1-1.5,0.7
	C43.6,37,44,37.5,44.5,38c0,0,0,0,0.1,0c1.5,1.9,1.4,4.6-0.3,6.3s-4.5,1.8-6.3,0.3h-0.1l0,0c-0.4-0.4-1-0.8-1.6-0.6
	c-0.6,0.3-0.7,0.9-0.7,1.5c0,0.1,0,0.1,0,0.2c-0.3,2.3-2.3,4.1-4.7,4.1c-2.5,0-4.5-1.9-4.7-4.3c0,0,0,0-0.1,0l0,0
	c0-0.6-0.1-1.3-0.7-1.5c-0.6-0.3-1.1,0.1-1.6,0.6c0,0,0,0.1-0.1,0.1c-1.9,1.5-4.6,1.4-6.3-0.4c-1.7-1.7-1.8-4.5-0.3-6.3v-0.1
	c0.4-0.4,0.8-1,0.6-1.6c-0.3-0.6-0.9-0.7-1.5-0.7H16c-2.3-0.3-4.1-2.3-4.1-4.7c0-2.5,1.9-4.5,4.3-4.7c0,0,0,0,0-0.1
	c0.6,0,1.2-0.1,1.5-0.7c0.3-0.6-0.1-1.1-0.6-1.6c-1.5-1.9-1.4-4.6,0.3-6.3c1.7-1.7,4.5-1.8,6.4-0.3c0,0,0,0,0.1,0
	c0.4,0.4,1,0.8,1.6,0.6c0.6-0.3,0.7-0.9,0.7-1.5l0,0c0.2-2.4,2.3-4.3,4.7-4.3c2.5,0,4.5,1.9,4.7,4.3l0,0c0,0.1,0,0.3,0,0.4l0,0
	c0,0.7-0.5,1.2-1.2,1.2s-1.2-0.5-1.2-1.2c-0.1-1.2-1.2-2.3-2.5-2.3c-1.3,0-2.4,1.1-2.4,2.4V18l0,0c0,0.8-0.5,1.5-1.3,1.8
	c0,0,0,0-0.1,0l0,0c-0.6,0.2-1.1,0.4-1.6,0.7l0,0c0,0,0,0-0.1,0c-0.8,0.4-1.7,0.2-2.2-0.5l-0.7-0.7c-0.9-0.9-2.4-0.9-3.4,0
	c-0.9,0.9-0.9,2.4,0,3.4l0.8,0.8l0,0c0.6,0.5,0.7,1.4,0.3,2.1l0,0l0,0c-0.3,0.5-0.5,1.1-0.7,1.6l0,0c0,0,0,0,0,0.1
	c-0.3,0.8-1.1,1.4-1.9,1.3h-1c-1.3,0-2.4,1.1-2.4,2.4s1.1,2.4,2.4,2.4h1.2l0,0c0.8,0,1.5,0.5,1.7,1.3l0,0l0,0
	c0.2,0.6,0.4,1.1,0.7,1.6v0.1l0,0c0.4,0.8,0.2,1.7-0.5,2.2l-0.5,0.8c-0.9,0.9-0.9,2.4,0,3.4c0.9,0.9,2.4,0.9,3.4,0l0.8-0.8l0,0
	c0.5-0.5,1.4-0.7,2.1-0.3l0,0h0.1c0.5,0.3,1.1,0.5,1.6,0.7v0.1l0,0c0.8,0.2,1.3,0.9,1.3,1.7l0,0v1.2c0,1.3,1.1,2.4,2.4,2.4
	s2.4-1.1,2.4-2.4v-1.2l0,0c0-0.8,0.5-1.5,1.3-1.7l0,0v-0.1c0.6-0.2,1.1-0.4,1.6-0.7h0.1l0,0c0.7-0.4,1.6-0.2,2.1,0.3l0,0l0.8,0.8
	c0.9,0.9,2.4,0.9,3.4,0c0.9-0.9,0.9-2.4,0-3.4l-0.7-0.7c-0.7-0.5-0.9-1.5-0.5-2.2l0,0v-0.1c0.3-0.5,0.5-1,0.7-1.6l0,0l0,0
	c0.2-0.8,0.9-1.3,1.7-1.3l0,0h1.4c1.3,0,2.4-1.1,2.4-2.4c0-1.3-1.1-2.4-2.4-2.4h-1c-0.8,0.1-1.7-0.4-1.9-1.3c0,0,0,0,0-0.1l0,0
	c-0.2-0.6-0.4-1.1-0.7-1.6l0,0l0,0c-0.4-0.7-0.2-1.6,0.3-2.1l0,0l0.8-0.8c0.9-0.9,0.9-2.4,0-3.4c-0.4-0.4-1.1-0.7-1.7-0.7
	c-0.7,0-1.2-0.5-1.2-1.2c0-0.7,0.5-1.2,1.2-1.2c0.1,0,0.2,0,0.2,0c1.1,0.1,2.2,0.5,3.1,1.4c1.7,1.7,1.8,4.5,0.3,6.4l0,0l0,0
	c-0.4,0.4-0.8,1-0.6,1.6C44.2,26.2,44.9,26.3,45.5,26.3L45.5,26.3z M37.4,20.4c-0.7,0-1.2-0.5-1.2-1.2c0-0.7,0.5-1.2,1.2-1.2
	s1.2,0.5,1.2,1.2C38.6,19.8,38,20.4,37.4,20.4L37.4,20.4z M26.7,34c0.7,0,1.2,0.5,1.2,1.2s-0.5,1.2-1.2,1.2s-1.2-0.5-1.2-1.2
	S26,34,26.7,34L26.7,34z M23.7,31c0-3.9,3.2-7.1,7.1-7.1s7.1,3.2,7.1,7.1s-3.2,7.1-7.1,7.1c-0.7,0-1.2-0.5-1.2-1.2s0.5-1.2,1.2-1.2
	c2.6,0,4.7-2.1,4.7-4.7s-2.1-4.7-4.7-4.7S26,28.4,26,31c0,0.7-0.5,1.2-1.2,1.2C24.2,32.2,23.7,31.7,23.7,31L23.7,31z"/>
</svg>
