<?xml version="1.0" encoding="utf-8"?>
<!-- Generator: Adobe Illustrator 23.0.3, SVG Export Plug-In . SVG Version: 6.00 Build 0)  -->
<svg version="1.1" id="Camada_1" xmlns="http://www.w3.org/2000/svg" xmlns:xlink="http://www.w3.org/1999/xlink" x="0px" y="0px"
	 viewBox="0 0 61.7 61.7" style="enable-background:new 0 0 61.7 61.7;" xml:space="preserve">
<style type="text/css">
	.st0{fill:#7FD244;}
</style>
<g>
	<path class="st0" d="M48.3,29.9l-6.2,4.7c-0.5,0.4-0.8,1.1-0.8,1.8c0,0.2,0,0.4,0.1,0.6c0,0,2.4,8.3,2.4,8.5
		c0.1,0.3,0.1,0.6,0.1,0.9c0,1.7-1.4,3.1-3.1,3.1c-0.7,0-1.3-0.2-1.8-0.6l-1.1-0.8l0,0c-0.3-0.2-0.6-0.6-0.6-1.1
		c0-0.7,0.6-1.3,1.3-1.3c0.3,0,0.6,0.1,0.8,0.3l0,0l0.3,0.2c0.1,0.1,0.3,0.1,0.5,0.1c0.5,0,0.9-0.4,0.9-0.9c0-0.1,0-0.2,0-0.2l0,0
		l-2.3-7.9c-0.1-0.4-0.2-0.8-0.2-1.2c0-1.5,0.7-2.8,1.8-3.7l0,0l5.9-4.6c0.2-0.2,0.4-0.4,0.4-0.7c0-0.5-0.4-0.9-0.9-0.9
		c-0.1,0-0.1,0-0.1,0h-7.3c-2,0-3.7-1.3-4.3-3.1L34,22.7c0-0.1-0.1-0.1-0.1-0.2l-2.2-6.4c0-0.1-0.1-0.2-0.2-0.3
		c-0.3-0.3-0.8-0.3-1.1,0c-0.1,0.1-0.2,0.2-0.2,0.3l0,0L28,22.4c0,0.1-0.1,0.2-0.1,0.3L27.8,23c-0.6,1.8-2.3,3.1-4.3,3.1h-7.3
		c0,0,0,0-0.1,0c-0.5,0-0.9,0.4-0.9,0.9c0,0.3,0.1,0.5,0.4,0.7l5.9,4.6l0,0c1.1,0.8,1.8,2.2,1.8,3.7c0,0.4-0.1,0.8-0.2,1.2l-2.3,7.9
		l0,0c0,0.1,0,0.1,0,0.2c0,0.5,0.4,0.9,0.9,0.9c0.2,0,0.3-0.1,0.5-0.1l6-4.3l0,0c0.7-0.5,1.7-0.9,2.6-0.9l0,0l0,0l0,0l0,0
		c0.7,0,1.2,0.5,1.2,1.2s-0.5,1.2-1.2,1.2l0,0c-0.2,0-0.5,0.1-0.6,0.2l-7.3,5.2c-0.5,0.4-1.1,0.6-1.8,0.6c-1.7,0-3.1-1.4-3.1-3.1
		c0-0.3,0-0.6,0.1-0.9c0-0.2,2.4-8.5,2.4-8.5c0-0.2,0.1-0.4,0.1-0.6c0-0.7-0.3-1.3-0.8-1.8l-6.2-4.7c-0.8-0.6-1.3-1.5-1.3-2.6
		c0-1.8,1.5-3.3,3.3-3.3l0,0h7.6c1,0,1.8-0.7,2.1-1.5c0,0,2.8-7.8,3-8.2c0.1-0.4,0.3-0.7,0.6-1c1.1-1.1,2.8-1.1,3.9,0
		c0.3,0.3,0.5,0.6,0.6,1s3,8.3,3,8.3c0.3,0.9,1.1,1.5,2.1,1.5h7.6l0,0c1.8,0,3.3,1.5,3.3,3.3C49.6,28.4,49.1,29.3,48.3,29.9
		L48.3,29.9z M35.2,43.7c0.6,0,1.2,0.5,1.2,1.2c0,0.6-0.5,1.2-1.2,1.2c-0.6,0-1.2-0.5-1.2-1.2S34.5,43.7,35.2,43.7L35.2,43.7z"/>
</g>
</svg>
