<?xml version="1.0" encoding="utf-8"?>
<!-- Generator: Adobe Illustrator 23.0.3, SVG Export Plug-In . SVG Version: 6.00 Build 0)  -->
<svg version="1.1" id="Camada_1" xmlns="http://www.w3.org/2000/svg" xmlns:xlink="http://www.w3.org/1999/xlink" x="0px" y="0px"
	 viewBox="0 0 61.7 61.7" style="enable-background:new 0 0 61.7 61.7;" xml:space="preserve">
<style type="text/css">
	.st0{fill:#7FD244;}
</style>
<g>
	<path class="st0" d="M28.6,33.2c-0.7,0-1.2-0.5-1.2-1.2v-7.1c0-2,1.6-3.6,3.6-3.6s3.6,1.6,3.6,3.6v9.5c0,0.2,0,0.5-0.1,0.7
		c0,0.2-0.1,0.4-0.2,0.5v0.1c-0.1,0.2-0.2,0.4-0.3,0.6l0,0c-0.1,0.2-0.2,0.3-0.4,0.5C32.9,37.5,32,38,31,38c-0.1,0-0.1,0-0.1,0
		c-0.6,0.1-1.1,0.6-1.1,1.2c0,0.7,0.5,1.2,1.2,1.2c0.7,0,1.2-0.5,1.2-1.2s0.5-1.2,1.2-1.2s1.2,0.5,1.2,1.2c0,2-1.6,3.6-3.6,3.6
		s-3.6-1.6-3.6-3.6c0-0.2,0-0.5,0.1-0.7c0-0.2,0.1-0.4,0.2-0.5v-0.1c0.1-0.2,0.2-0.4,0.3-0.6l0,0c0.1-0.2,0.2-0.3,0.4-0.5
		c0.7-0.7,1.6-1.2,2.6-1.2c0.1,0,0.2,0,0.3,0h0.1c0.5-0.2,0.8-0.6,0.8-1.1V25c0-0.7-0.5-1.2-1.2-1.2s-1.2,0.5-1.2,1.2v7.1
		C29.8,32.7,29.2,33.2,28.6,33.2L28.6,33.2z M41.6,47.5c-3.6,0-7.1,0-10.7,0c-2.4,0-4.7,0-7.1,0c-0.7,0-1.2-0.5-1.2-1.2
		s0.5-1.2,1.2-1.2l0,0c2.3,0,4.7,0,7.1,0c3.5,0,6.9,0,10,0c6.3,0,6.6-1.6,3.4-7.2c-3.2-5.6-5.9-11.5-9-17.1s-5.8-5.6-8.9,0
		s-5.9,11.5-9,17.1c-1.2,2.1-2,3.2-2,5.4c0,0.7-0.5,1.2-1.2,1.2S13,44,13,43.3v0.2c0-0.1,0-0.1,0-0.2c0-1.4,0.6-3.2,1.8-5.3
		c3.6-6.3,6.6-12.7,10.1-19c3.5-6.4,8.2-6.4,11.7,0s6.5,12.7,10.1,19C50.5,44.4,48.8,47.5,41.6,47.5L41.6,47.5z M19.1,45.1
		c0.7,0,1.2,0.5,1.2,1.2s-0.5,1.2-1.2,1.2s-1.2-0.5-1.2-1.2C17.9,45.6,18.4,45.1,19.1,45.1L19.1,45.1z"/>
</g>
</svg>
