<?xml version="1.0" encoding="utf-8"?>
<!-- Generator: Adobe Illustrator 23.0.3, SVG Export Plug-In . SVG Version: 6.00 Build 0)  -->
<svg version="1.1" id="Camada_1" xmlns="http://www.w3.org/2000/svg" xmlns:xlink="http://www.w3.org/1999/xlink" x="0px" y="0px"
	 viewBox="0 0 61.7 61.7" style="enable-background:new 0 0 61.7 61.7;" xml:space="preserve">
<style type="text/css">
	.st0{fill:#7FD244;}
</style>
<g>
	<path class="st0" d="M35.7,27.3c0,0.7-0.5,1.2-1.2,1.2s-1.2-0.5-1.2-1.2s0.5-1.2,1.2-1.2C35.1,26.1,35.7,26.6,35.7,27.3L35.7,27.3z
		 M30.9,27.3c0,0.7-0.5,1.2-1.2,1.2s-1.2-0.5-1.2-1.2s0.5-1.2,1.2-1.2S30.9,26.6,30.9,27.3L30.9,27.3z M45.2,38h-3.9
		c-0.5,0-0.9,0.4-0.9,0.9v6.2c0,2.6-2.1,4.7-4.7,4.7h-19c-2.6,0-4.7-2.1-4.7-4.7V33.8c0-1.6,1.3-3,3-3h22.3c0.5,0,0.9-0.4,0.9-0.9
		V26c0-1.3-1.1-2.4-2.4-2.4h-19c-1.3,0-2.4,1.1-2.4,2.4v1.2c0,0.7-0.5,1.2-1.2,1.2S12,27.9,12,27.2V26c0-2.6,2.1-4.7,4.7-4.7h6.5
		h0.6h2.4h0.6h8.9c2.6,0,4.7,2.1,4.7,4.7v4.2c0,1.6-1.3,3-3,3H15.2c-0.5,0-0.9,0.4-0.9,0.9v11c0,1.3,1.1,2.4,2.4,2.4h19
		c1.3,0,2.4-1.1,2.4-2.4v-6.5c0-1.1,0.6-2.1,1.6-2.6c0,0,0.1,0,0.1-0.1c0.4-0.2,0.8-0.3,1.3-0.3h4.2c1.3,0,2.4-1.1,2.4-2.4V16.6
		c0-1.3-1.1-2.4-2.4-2.4H28.5c-1.3,0-2.4,1.1-2.4,2.4v1.2c0,0.7-0.5,1.2-1.2,1.2s-1.2-0.5-1.2-1.2v-1.2c0-2.6,2.1-4.7,4.7-4.7H45
		c2.6,0,4.7,2.1,4.7,4.7v16.6C49.9,35.9,47.8,38,45.2,38L45.2,38z"/>
</g>
</svg>
